<svg viewBox="0 0 96 96" xmlns="http://www.w3.org/2000/svg" xmlns:xlink="http://www.w3.org/1999/xlink"><style>:root&gt;svg{display:none}:root&gt;svg:target{display:block}</style><svg fill="none" viewBox="0 0 96 96" id="desc1" xmlns="http://www.w3.org/2000/svg"><g clip-path="url(#aclip0_211_3488)"><path d="M76.112 85.838l.096-.016.026-.085.155-.046.026-.085.099-.016c.026-.04.056-.077.082-.115h.043l.026-.085.099-.016.026-.085.154-.046.027-.085.098-.016a1.96 1.96 0 01.083-.114h.042l.027-.086.098-.016.027-.085.098-.016a1.96 1.96 0 01.083-.114l.042.013.027-.085.096-.016.026-.086.099-.016.096-.157.098-.019.096-.157.098-.016.096-.157.098-.016.096-.157.098-.016.096-.157.099-.016.095-.157.099-.02.095-.156.099-.016c.034-.051.064-.104.096-.157l.1-.017.163-.229.098-.016.027-.085.112-.059.026-.082.099-.019.026-.085.112-.059.026-.082.043.013.026-.085.096-.016.168-.23.096-.015.164-.23.099-.016.096-.157.098-.018.096-.158.098-.016.096-.157.098-.016.096-.157.098-.016.096-.157.099-.016.412-.576.04-.125.072.07.162-.23.114-.058.024-.086h.045l.027-.085h.042l.027-.085h.043l.095-.157.043.013.096-.157h.042l.096-.158h.042l.027-.085.043.013.04-.127h.042l.096-.158h.042l.027-.085.042.013.027-.085.043.013.026-.082.043.013.026-.085h.043l.247-.344.043.013.026-.087h.043l.04-.128h.032l.026-.086.043.014.096-.157h.042l.04-.126h.043l.026-.085.043.013.04-.128h.042l.027-.085h.042c.043-.08.083-.162.123-.242h.042l.027-.086h.045l.037-.127.046.013.023-.085.046.013.037-.128h.045l.027-.085h.037c.04-.08.082-.16.122-.243h.043l.026-.082h.043c.04-.083.082-.163.122-.243h.043l.026-.085.043.013.04-.128h.042l.123-.242.042.013.027-.082h.042c.04-.083.083-.163.123-.243l.042.013.027-.085h.042l.123-.242.042.013.027-.085h.043c.069-.118.135-.237.202-.357h.045l.024-.086h.045l.12-.24h.045c.034-.069.072-.133.109-.202h.043l.026-.082h.043l.04-.129h.042l.027-.085.042.014.04-.128h.035l.024-.086h.045l.037-.127.045.013.037-.125h.046l.077-.267h.045l.064-.213h.045c.11-.16.072-.312.216-.4l.04-.128a.924.924 0 00-.237.16h-.043c.468-.557.835-1.305 1.285-1.889h.045v-.045h.042l-.066.216h.042a2.57 2.57 0 01.235-.304l.066-.213h.043l.066-.213h.043l.066-.214h.043l.066-.213h.043l.093-.298h.042l.09-.299h.046l.077-.266.043.013.08-.266h.042l.066-.213h.043l.04-.128h.042c.112-.155.072-.31.219-.397l.026-.086h-.042a.351.351 0 01-.125.102v.042h-.043c.122-.39.301-.76.532-1.098l.144-.469h.042l.2-.64.042.014.2-.64.042.014.146-.469h.043l.157-.511h.045l.197-.64h.043l.332-1.066h-.043l.064-.213.045.013.197-.64h.043l.026-.084h.043l.12-.387.042.014.08-.267.042.013.04-.128.155-.045.75-2.571c0-.419.178-.933.183-1.333l.093-.298c0-.296.061-.671.067-.962.071-.336.143-.671.218-1.007l-.043-.013.08-.254-.043-.013.08-.266-.042-.014.077-.266h-.043l.067-.213-.043-.014.067-.213-.043-.013.067-.216h-.043c.04-.08.08-.16.122-.24h-.045l.067-.216c0-.362.087-.818.09-1.185l.08-.267c0-.38.096-.847.1-1.23l.147-.47h-.042l.08-.266h-.043l.066-.214h-.045l.067-.213-.043-.013.04-.128h-.043l.04-.128h-.042l.04-.128-.043-.013.04-.128-.045.634.026-.085-.042-.013c.016-.197.032-.395.045-.594h-.042l.026-.083h-.043v-.184l-.047-.016.026-.085-.042-.014.026-.082-.042-.014.026-.087-.042-.014.026-.082-.042-.014.026-.085-.042-.013c-.064-.323 0-.717-.162-.986l.026-.085c.032.064.019 0 .016.098l.045.014a1.57 1.57 0 000-.8l.027-.085h-.043c-.015.104-.034.208-.05.312h-.043c.014-.088.024-.179.038-.267l-.043-.013.04-.128h-.045l.053-.17h-.043l.04-.129-.042-.013.04-.128h-.043l.04-.125h-.043l.038-.128h-.043l.027-.085h-.038l.04-.128-.042-.013.026-.083h-.042c.032-.053.061-.107.096-.157l-.046-.014.027-.087-.07-.07.027-.082-.074-.072.026-.083-.042-.013c.03-.056.021.024.056-.03l.013-.045h-.042l.04-.125-.043-.016.04-.125-.043-.014.04-.128h-.042l.026-.087h-.045c.013-.088.026-.179.037-.267h-.042l.026-.085h-.04c.014-.09.024-.179.038-.267h-.043l.027-.082-.046-.014.04-.127h-.042l.026-.086h-.042l.024-.226h-.043l.04-.128h-.043l.024-.085h-.042l.04-.128-.043-.014v-.183l-.042-.014.04-.128-.043-.013v-.184l-.043-.013.04-.128h-.042l.026-.085h-.042v-.283l-.043-.013.048-.147-.042-.013v-.186l-.043-.014.027-.085-.043-.013.027-.086-.043-.013.027-.083h-.043l.027-.087h-.043l.027-.083h-.045l.04-.128-.043-.013v-.283h-.043l.027-.085h-.043l.027-.085h-.042v-.28l-.072-.07v-.186l-.043-.013.027-.085-.043-.014.027-.085-.043-.014.027-.085-.043-.013.027-.085-.043-.014.027-.085-.059-.112.027-.085-.072-.07.027-.085-.059-.111.027-.086h-.043l.027-.085-.075-.07.027-.085-.059-.111v-.184l-.071-.07v-.282l-.075-.07v-.183l-.072-.07v-.183l-.071-.07v-.184l-.072-.069v-.184l-.072-.069v-.141l-.043-.014v-.183a.885.885 0 01-.071-.07v-.14h-.046v-.185l-.071-.069.026-.085-.072-.07.027-.085-.072-.07.027-.082-.072-.072.027-.082-.072-.07.026-.085-.071-.07.026-.084-.072-.07.027-.085-.072-.07.027-.085-.072-.069.027-.085-.046-.013v-.142l-.072-.069.027-.082-.1-.128.026-.083-.072-.07v-.14l-.045-.014.026-.085a2.322 2.322 0 00-.1-.125l.026-.085-.07-.07.027-.085-.074-.07v-.14c0-.046-.067-.086-.101-.126l.026-.085-.1-.125.026-.086-.101-.125.026-.085-.1-.123.026-.088c-.035-.04-.067-.082-.101-.125l.026-.085c-.042-.059-.085-.12-.13-.179l.027-.088c-.043-.058-.085-.12-.13-.178v-.141l-.072-.07.026-.087-.16-.235.027-.085-.13-.181.026-.086-.162-.237.027-.085-.16-.235.027-.085-.16-.237.027-.085-.101-.126-.048-.154-.043-.013.027-.086-.247-.405.026-.085-.247-.405.026-.083-.305-.517.026-.085-.072-.07.014-.044-.394-.683.027-.085-.072-.07a4.87 4.87 0 00-.075-.21l-.188-.293c-.101-.218-.205-.437-.309-.658a1.648 1.648 0 01-.205-.389h-.042v.139a3.088 3.088 0 01-.351-.67l-.32-.473-.103-.267c-.638-.853-1.106-1.793-1.742-2.646l-.34-.714-.086-.027c-.016-.053-.029-.104-.045-.154l-.114-.083-.016-.098-.085-.027-.016-.099-.115-.082.014-.043-.085-.026-.016-.1-.157-.095-.016-.099-.229-.165-.016-.098-.085-.027-.058-.11-.086-.026v-.043l-.069-.02.014-.046-.086-.024.014-.046-.085-.026v-.043l-.085-.026.013-.04-.157-.096c0-.032 0-.067-.019-.099l-.2-.11v-.042l-.156-.096.013-.04-.085-.029-.016-.096-.085-.026-.058-.112-.085-.027.013-.043-.085-.026v-.046l-.085-.024-.016-.1-.086-.028v-.042l-.085-.027-.016-.098-.085-.024-.016-.099-.085-.027-.016-.098-.085-.027-.016-.099-.085-.026c-.016-.05-.03-.101-.045-.155l-.082-.026c-.027-.07-.051-.139-.075-.208l-.085-.027a9.905 9.905 0 01-.075-.21l-.085-.027c-.02-.085-.042-.168-.06-.266l-.086-.027-.058-.112-.085-.027.013-.042-.085-.027v-.043l-.085-.026.013-.046-.2-.109.014-.042-.085-.027.013-.043-.229-.162.014-.043-.128-.04.013-.042-.082-.027.013-.043-.085-.026.013-.04-.085-.027.013-.043-.127-.04.013-.042-.157-.096v-.043l-.128-.04.014-.042-.157-.096.013-.04-.127-.04.013-.043-.157-.096v-.045l-.085-.024.013-.045-.128-.038.014-.045-.157-.096.013-.04-.085-.027.013-.042-.127-.04.016-.043-.23-.162.014-.043-.085-.027.013-.042-.085-.03.014-.04-.157-.095.013-.043-.128-.04v-.043l-.157-.096.014-.042-.157-.096-.016-.099-.085-.026-.061-.112-.083-.027v-.043l-.085-.026-.016-.099-.085-.024-.016-.101-.085-.027-.016-.096-.157-.095v-.046l-.157-.096.013-.04-.127-.04.013-.042-.085-.027.013-.043-.157-.095.014-.043-.128-.04.013-.043-.085-.026.013-.043-.242-.123.014-.042-.085-.027.016-.043-.128-.04.013-.042-.127-.04.013-.043-.128-.04.013-.042-.127-.04v-.043l-.128-.04v-.043l-.127-.04.013-.042-.128-.04.013-.043-.124-.04.013-.042-.242-.123.013-.043-.085-.026.013-.043-.127-.04.013-.042-.399-.219.013-.043-.17-.053v-.042l-.128-.04.014-.043-.128-.04.013-.043-.17-.053.013-.043-.127-.04v-.042l-.125-.04.013-.043-.128-.04.014-.042-.128-.04.013-.043-.127-.04v-.035l-.242-.122.013-.043-.229-.162-.016-.099-.085-.027.014-.042-.357-.205v-.043l-.127-.04v-.043l-.083-.026v-.043l-.399-.218.013-.043-.127-.04.013-.043-.128-.04v-.042l-.127-.04v-.043l-.17-.053.013-.043-.128-.04.014-.04-.17-.053c-.658-.482-1.56-.837-2.253-1.308l-1.064-.472c-.327-.221-.78-.405-1.112-.626l-.252-.08.013-.043-.266-.08v-.042l-.266-.08.013-.043-.213-.067.014-.042-.128-.04.013-.043a.86.86 0 00-.396-.074l-.723-.227-.013.043-.554-.17-.013.042-.468-.147L65 3.91l-.423-.13v.04l-.383-.12v.045l-.383-.12-.014.042-.34-.106v.043l-.298-.094-.013.043-.34-.104c-.376 0-.846-.136-1.216-.144l-.596-.186v.042l-.72-.224a3.865 3.865 0 00-.567-.13l-.425-.133v-.046l-.652-.154-.013.042c-.184 0-.38-.175-.532-.114l-.851-.267.016-.045a.504.504 0 01.183 0c-.085-.125-.643-.152-.797-.152l-.213-.066-.014.042-.212-.066-.014.042-.127-.037-.014.043h-.183l-.013.042-.086-.026-.292.189-.085-.027a1.726 1.726 0 01-.798 0c.067.101.668.203.894.267l.212.066.016.099c.169.02.339.026.508.018l.213.067.013-.043.266.08.014-.045.212.067.014-.043.127.04.014-.043.098-.016.027-.085c.074-.045.122.027.226.021l.013-.04.907.235-.016.043.085.026c-.07.056-.045.05-.152.045l-.016.043.532.117.014-.045 1.047.235-.013.042.599.328-.014.043h.043l-.014.042c-.361-.05-1.17-.408-1.64-.418-.253 0-.596-.203-.822-.208-.226-.005-.519-.248-.694-.17l-.085-.025c.087.144.393.086.532.214l.015.1.086.025.015.098.115.083v.043c-1.136-.416-2.463-.816-3.686-1.194.24.004.48.046.707.125-.1-.162-.67-.218-.74-.325-.023 0-.167-.08-.14 0h.042l-.013.043-.45-.048a2.206 2.206 0 01.022-.368l-.96-.064-.17-.053.013-.043 1.085-.037V1.37l.085.026.014-.042.127.04.014-.043.127.04.013-.043.083.027.013-.043.128.04V1.33l.226.02.013-.039h.043l.013-.043a8.676 8.676 0 00-2.558-.471L51.815.73 51.8.773l-.707-.126-.013.043-.085-.027-.014.043.17.053c.048.04-.02.019.03.056a.327.327 0 01-.154.046l-.014.042 1.006.221-.014.043h-.183l-.07.075-.084-.027-.112.059-.083-.027-.013.043-.088-.027-.069.072h-.183l-.014.043h-.183l-.013.042-.397-.074-.013.042-.213-.066-.013.042-.213-.066-.013.042-.213-.066v.042l-.17-.05v.042l-.17-.053v.043l-.397-.078-.013.043L49 1.236c-.024.024-.045.051-.07.072h-.183c-.023.024-.045.05-.069.072l-.226-.024-.013.046-.396-.078-.014.043-.396-.077-.013.042-.495-.058-.013.042-.17-.053-.014.043c-.151 0-.242-.078-.367-.022l-.127-.04.013-.042c.29-.04.62-.067.915-.09l.41.034.013-.043.875.037.013-.042-.085-.027.026-.082a.218.218 0 00.21-.075l.043.013.027-.085h-.423l-.014.043-.085-.027-.013.043-.127-.04-.014.045-.085-.027-.013.043-.266-.037c-.14.025-.283.025-.423 0l.024-.083c.12-.013.237-.04.351-.08l.128.04c.247-.041.5-.041.747 0-.019-.053-.04-.059-.059-.115l.506-.122V.482L48.408.4l-.013.042-.085-.026-.014.042-.127-.04-.014.043-.41-.035-.012.043-.128-.04-.013.043-.083-.024-.013.042-.128-.04v.043l-.266-.037v.042l-.085-.024-.013.043-.128-.04-.013.043-.085-.027-.014.043-.266-.038v.046l-.085-.027V.56l-.127-.04-.014.042h-.183l-.013.043-.128-.04-.013.045h-.184l-.013.043-.128-.04-.013.042h-.266l-.013.043-.085-.027-.014.046-.127-.04-.014.042h-.282l-.013.043-.085-.027-.013.043-.083-.027-.013.043h-.282c-.024.024-.045.05-.07.072l-.084-.027-.11.059L43.96.87l-.014.043L43.86.89l-.069.072h-.183l-.07.072h-.183l-.07.072-.084-.027-.07.072-.085-.027-.069.072-.082-.026-.07.072-.922-.387-.013.043h-.282v.045l-.085-.026-.014.042h-.423l-.069.072-.082-.026-.112.058-.085-.026v.042l-.085-.027v.046l-.085-.027-.07.072-.084-.027-.11.06-.085-.028-.013.043-.085-.027-.013.043-.085-.024-.07.072h-.183l-.112.059-.082-.027-.014.045-.085-.026-.013.042-.085-.026-.013.042h-.184l-.013.043h-.184c-.023.024-.045.048-.069.07h-.183l-.014.042-.085-.027-.013.043-.085-.027-.013.043-.083-.027-.111.059-.086-.027-.069.075-.085-.027-.109.059-.085-.027-.013.043-.085-.027-.014.043-.085-.027-.013.043-.085-.024-.014.042-.082-.026-.013.042-.085-.026-.014.042h-.282v.043l-.127-.04-.014.043-.082-.024-.013.042-.266-.08-.774.086-.07.074-.084-.026-.014.042-.085-.026-.069.071-.082-.026-.014.042-.082-.026v.042a.852.852 0 00.38-.02l.083.026v.042c-.25.035-.506.099-.742.144h-.282l-.07.072-.085-.026-.013.042-.085-.026-.013.042-.083-.024-.013.043c-.12.005-.24.031-.351.077l-.043-.013a1.24 1.24 0 01.375-.163l.014-.042a.241.241 0 00-.194.032h-.046l.07-.072a.797.797 0 00-.362.12l-.014.042-.085-.024-.069.072-.088-.026-.069.071h-.138l-.013.043-.085-.027-.07.072-.087-.026-.07.072-.084-.027-.07.072h-.183c-.024.024-.045.05-.07.072l-.084-.027v.016h-.141l-.07.072-.085-.026-.125.1-.085-.026-.069.072-.085-.027-.125.102h-.14l-.07.074-.085-.026-.07.069-.084-.027-.125.102-.085-.027-.125.101-.086-.026-.125.1-.085-.026-.178.133-.085-.026c-.08.05-.157.106-.237.16l-.085-.027-.069.072-.21.075-.024.085-.21.074-.027.083-.21.075v.045l-.085-.027-.125.102-.085-.027-.122.101-.452-.048-.07.072h-.183l-.125.101-.085-.026-.125.101-.085-.027-.293.19-.085-.027-.516.306c-.21.063-.411.153-.598.267h-.046v.045l.266.035-.053.17-1.31.621-.293.19c-.498.2-.978.44-1.437.719l-.821.4-.027.085-.21.074-.013.043-.088-.027-.013.043-.08-.024-.013.043-.099.016-.026.085-.155.045-.024.085-.1.016-.096.158-.21.074-.027.085-.152.046-.026.085-.099.016-.029.085-.096.019-.095.157h-.043c-.067.09 0 .17-.024.227l-.098.016-.027.085-.266.104-.026.088-.096.016-.027.085-.154.045-.096.158-.098.015-.027.088-.042-.013-.027.083h-.043l-.026.085-.112.059-.026.085-.099.016-.026.085-.099.016-.024.085-.154.048-.027.083-.154.045-.026.086c-.027.02-.067.013-.112.058l-.085-.026c.081-.164.205-.303.359-.403l.026-.085-.042-.013-.194.173-.099.018-.026.086-.155.045c-.1.08-.146.195-.265.245l-.054.17.072.07-.027.085c-.162.07-.324.339-.47.464l-.096.016-.096.157-.098.016-.083.115h-.042l-.096.157-.1.016-.025.085-.154.045-.027.086-.098.016c-.027.04-.056.077-.083.114h-.042l-.027.085-.098.016c-.03.038-.056.078-.083.115l-.154.045-.026.086-.155.045-.026.085-.099.016c-.026.04-.055.077-.082.115l-.21.074-.027.086-.21.074-.026.088-.155.045-.026.083-.152.048-.026.085-.155.043-.026.085-.099.016-.026.088-.099.016-.095.157-.099.016-.026.086-.043-.014c-.056.078-.109.155-.165.23h-.042l-.123.242h-.042l-.04.128-.043-.014-.026.086-.043-.014-.04.126h-.042l-.027.085h-.043l-.04.13-.042-.013-.096.157h-.042l-.04.128-.043-.013-.026.085-.043-.013-.098.157h-.04l-.04.128-.043-.013a5.7 5.7 0 01-.109.2h-.042l-.096.157h-.042l-.04.128h-.043l-.096.157h-.042l-.04.128-.043-.014-.095.158h-.043l-.04.127h-.042l-.096.158-.04-.014-.024.086h-.045l-.037.128h-.046l-.024.085-.045-.014-.162.23h-.043l-.04.128h-.042l-.027.085-.042-.014-.04.128h-.043l-.109.2-.042-.013-.096.157h-.042l-.04.128h-.04l-.027.085-.042-.013a7.415 7.415 0 00-.11.2h-.042l-.04.128-.042-.014-.027.086-.043-.014-.04.128h-.042l-.027.083h-.042l-.037.128-.046-.014-.095.158h-.043l-.04.128-.042-.014-.027.086-.043-.014-.122.243-.04-.014-.026.086-.043-.014-.122.24-.043-.013-.04.128h-.042l-.04.128h-.043l-.026.085-.043-.014c-.143.166-.24.472-.412.573-.05.078 0 .04-.07.072l.027-.085c-.183 0-.266.112-.42.15-.108.435-.27.856-.481 1.252-.072.18-.141.362-.213.533h-.042l-.027.085h-.043l-.04.128c-.193.164-.34.376-.425.615l-.085-.026-1.184 2.014-.085-.027a4.393 4.393 0 01-.476.928L4.758 28.62h-.04l.093-.299h.042l.107-.341h-.043c-.111.179-.308.253-.415.432l.085.026a1.673 1.673 0 01-.292.938l-.04-.013-.027.085-.098.016c-.194.23 0 .661-.25.8l-.16.511h-.045c.022-.18.061-.36.117-.533l-.042-.013-.311.698c-.33.501-.532 1.26-.748 1.964-.069.266-.14.549-.21.823h.043l-.13.427.042.013-.12.384.043.013-.12.386.043.014-.117.383h.04l-.447 1.6.042.012-.316 1.024.042.013-.173.552.046.013c-.08.304-.157.607-.237.909h.043l.066-.214h.04c-.04.237-.083.472-.125.71h.042l-.093.298h.043l-.077.266c-.083-.088-.085-.187-.15-.266l.027-.086H.936a4.6 4.6 0 00-.13 1.175l-.08.267c0 .253-.077.613-.083.863l-.127.568c0 .288-.064.671-.067.962l-.077.266.04.014-.101.482c0 .533-.11 1.13-.093 1.652l-.064.354.043.014-.064.354.045.013-.053.17h.042l-.053.171.043.014-.053.17h.042l-.04.128.043.013-.04.128.045.014-.048.453.043.013-.027.085.043.014c.029-.038.056-.078.082-.115.059.12-.024.218-.021.368l.042.013-.053.17H.26l-.08.267h.043l-.066.213h.042l-.04.128h.043l-.053.17.042.014-.024.085.072.07-.026.085.1.125-.026.085.101.123-.027.085.072.07c-.026.335-.053.668-.077 1.004H.4v.184h.04l-.026.085.16.237-.027.085.058.112-.026.083.042.013-.026.088.042.014-.024.082.043.014-.027.085.043.013-.027.085.072.07-.053.17.042.014v.282l.072.07-.027.084.059.11-.027.085h.043l-.027.085h.046l-.027.085.056.112-.024.086a.844.844 0 01.069.069v.184l.045.013-.026.083H.98l-.026.085h.042l-.026.085h.042l-.027.086h.035c0 .2.033.4.096.591l-.027.085c-.074-.08-.061-.128-.173-.194-.085.357.059.533.128.8v.183h.043l-.027.085.074.07-.026.085.058.112-.026.085.042.013-.026.083.042.013-.026.088c.066.175.103.36.109.547l-.085-.027c.223 1.865.797 3.512 1.372 5.199h.042l.075.207.128.04v.043l.085.027.016.098h.042v.141l.162.238-.026.085.247.405-.026.083c.093.154.183.309.265.46l-.026.086.042.013.048.155.13.18-.026.086.16.237-.027.083.16.237-.032.107c.063.098.127.194.188.293v.183l.115.083v.141c0 .048.069.083.1.126l-.026.082.072.07-.026.087.071.07-.026.085.072.07-.027.085.072.069-.027.085.043.013v.184h.042l-.069.072c.032.043.067.083.101.125l-.04.128.043.014c-.08.122-.088.109-.266.06.045.11.125.153.202.249l.016.101.085.027c.016.05.032.1.045.154l.085.024c.043.11.088.216.133.323l.085.026c0 .05.03.101.046.155l.407.64-.04.127c-.141-.056-.186-.093-.216-.205l-.085-.027c.081.252.196.493.34.714 0 .051.03.102.046.152l.085.027.016.099.114.082-.013.043.085.026.016.099.085.027c.027.072.05.14.075.21l.085.027c.016.05.032.104.045.154l.042.014-.069.072.213.066.136.32.16.237.015.099.085.026c.083.184.168.365.25.547l.085.026.136.323.085.026.104.267c.093.128.149.12.189.293l.082.027c-.13-.267-.266-.552-.396-.826-.032-.043-.067-.083-.101-.126l.026-.085-.071-.07.066-.212-.072-.07v-.042l-.085-.027-.191-.434-.085-.027.013-.043c.267.124.48.34.604.608l.074.21.157.096v.043l.114.083.016.098.085.027.016.101.088.027c.024.069.048.138.075.208l.085.029.133.32.085.026c.103.219.204.44.308.658l.085.027.016.099.046.013.337.714.085.024.338.714.114.083c.024.072.051.141.075.21l.085.027.016.099.085.026.016.099.085.026.016.1.088.026-.013.042.082.027-.013.043.127.04.016.098.088.027.016.098.085.027c.021.024.014.067.059.112v.043a2.487 2.487 0 01-.575-.555l-.088-.026c.04.157.176.266.25.405l.192.434.082.027c0 .032 0 .066.019.096.019.029.085.122.13.18.045.11.088.217.133.323l.075.024.133.32.085.027.016.098h.042l.048.155.154.096.02.098.156.096.016.099.157.096.016.098.157.096.016.102.157.095.016.096.156.096.016.102.157.096.016.098.229.163.016.098.085.027.059.112.085.026.016.099.228.165.016.099.085.026.056.11.085.026.016.099.085.026.059.112.085.027-.013.043.082.026c0 .032 0 .067.019.099l.082.027.059.109.157.096.016.098.085.027.058.112.085.027v.042l.085.027-.013.042.085.027-.013.043.085.026v.043l.082.027v.042l.086.027v.043l.156.096-.013.042.157.096-.013.043.229.165v.045l.226.166-.014.042.088.027v.042l.082.027v.043l.086.026v.043l.085.027-.014.042.085.027-.013.043.085.026v.043l.128.04-.013.042.157.096-.014.043.128.04-.013.043.157.095v.043l.125.04-.014.043.088.026-.013.043c.066.037.13.075.2.11l-.014.042.128.04-.014.042.083.027-.014.043.687.495v.043l-.17-.053c.045.162.194.207.316.333v.042l.085.027-.013.043c.074.056.151.109.228.162l-.013.046.125.037v.045l.085.024-.013.045.085.024-.013.046.085.024-.014.045.128.037-.013.046.082.024v.045l.128.037-.013.045.085.024-.014.046.128.037v.045l.085.024-.013.046.24.122v.043l.084.024-.013.045.128.04-.014.043.128.04v.042l.128.04-.014.043.17.053-.013.043.125.04v.042l.285.136-.013.043.37.162-.014.043.213.067-.014.042.298.094v.042l.298.09v.046l.426.13-.014.043.596.187-.013.043.465.146v.043l.216.066-.014.043.083.027-.014.042.128.04.346.387c-.122.186-.061.026-.21.074l-.014.043-.085-.027c.308.153.626.284.953.392.03.095.046.194.047.293.135.015.266.056.386.12l.213.067-.014.042.17.053-.013.043.125.04-.013.043.128.04-.014.042.37.163-.013.043c.16.106.532.151.611.285h.043l-.082.111.91.379c.094.079.2.143.313.192l.027-.088.553.173v-.043l-.668-.266.125-.101c.434.123.85.302 1.237.533.162.106.359.093.441.231l-.085-.026c-.029.149-.016.168.061.266-.162.088-.303-.037-.532-.114.083.135.282.122.442.229v.042l.298.094v.042l.34.107-.013.043.383.12v.042l.638.197a2.6 2.6 0 00.838.31l.013-.043.553.173c.362.01.72.075 1.064.19l1.277.396.686.496.383.117 1.287.354-.013.043-.311-.048c.116.099.26.16.412.176l.013-.045.553.173c.314.026.623.092.92.194l.027-.085-.455-.19.014-.042.832.168.013-.043.298.091c.463 0 1.01.139 1.455.125l.308.05v-.042l.086.027.069-.072.266.08.013-.043c.205 0 .46.165.622.102.226.082.125.072.213.205l-.013.042h.045l.07-.072.127.04.013-.042.125.04.013-.043.17.053.014-.045 1.064.192.013-.043.226.07a1.96 1.96 0 01.466 0 1.59 1.59 0 01.082-.115l.888.139 1.33.042-.013.043c-.134 0-.267.022-.394.064l-.085-.027-.013.043-.086-.027-.013.043-.127-.037-.014.042h-.266l-.013.043-.085-.027-.013.043-.086-.027-.013.043-.127-.04a.888.888 0 01-.07.072c-.127.037-.204 0-.305.09h-.043l-.013.046c.266.012.533.001.798-.032l.41.034.012-.042.128.04v-.043l.128.04.013-.043.128.038v-.043l.125.04.013-.043.128.04.013-.042.266.037.013-.045.085.026.014-.042a.63.63 0 00.284.135l.014-.042.265.08s0 .061.07.07v-.043l.127.04.014-.046.085.027.013-.043.266.037.013-.042.085.026.014-.045-.312-.048-.013.043-.085-.027.013-.042h.141l.014-.043.085.024.013-.043.085.027c.043-.032.082-.067.122-.101l.085.026.07-.072.127.04.014-.042.085.026.013-.042.128.04.013-.043.128.04.013-.045.082.026.014-.042.127.04v-.043l.128.04.013-.043c.139-.02.221.032.338-.034l.085.026-.013.043a1.672 1.672 0 00-.604.139l-.042-.014-.014.043.508.019.014-.043 1.063.147-.013.042a2.022 2.022 0 00-.883.147l-.085-.027-.013.043c.145.049.3.065.452.048l.069-.072.519-.024.013-.043.088.027.013-.043.082.024.016-.043.085.027.014-.043.085.027.013-.042.085.026.014-.043h.183l.013-.042.085.026.014-.045h.14l.027-.085-.31-.05-.014.042-.085-.024.013-.045c.167 0 .333-.028.492-.08l.085.026v-.042h.28l.013-.043h.282l.013-.045.127.04.014-.043.085.027.013-.043.798-.03v.044c-.12.008-.239.034-.351.077-.03.17.016.133 0 .282a1.216 1.216 0 00.907-.511c.266.047.433-.032.689.026l.013-.042-.125-.04.013-.043c.22-.01.437-.052.644-.125l.085.026v-.045l.085.027.112-.056.085.026.069-.074.085.026.112-.058.085.026v-.042l.085.027.013-.043.086.026.069-.071h.183v-.043l.085.027.014-.043.085.027.013-.043.085.024.013-.043.085.027.014-.043.085.027.013-.043.226.024v-.042h.282l.013-.043.086.027.013-.043.085.027.013-.043.085.027.014-.043.085.024.013-.043.085.027.013-.043.086.027.013-.043.085.027.112-.058.085.026.069-.072h.28l.068-.072.085.027.112-.059.085.027v-.043l.085.027.07-.072h.281c.024-.024.045-.05.07-.072h.183c.024-.024.045-.05.07-.072h.183c.024-.024.045-.05.069-.072h.14l.014-.045h.184l.069-.072.085.027.069-.072.085.026.07-.072.09.027.069-.07h.183l.07-.071.085.026.069-.072.085.027.069-.072h.183l.07-.072.082.027.072-.072.085.026.069-.071.085.026v-.042l.085.026.014-.042.226.024.013-.043.043.013c-.155.128-.42.123-.617.181l-.07.072h-.183l-.014.043h-.14a.868.868 0 01-.07.072l-.082-.027-.072.075h-.138l-.013.043-.085-.027-.07.072h-.183l-.07.072h-.14l-.014.043-.085-.027-.013.043c-.101.023-.093-.027-.197.031l-.082-.026c.098.141.723 0 .928 0v.042h-.141l-.013.046-.083-.027-.069.07-.085-.025-.013.043-.085-.027-.07.07c-.093.026-.098-.03-.196.034l-.046-.013v.043a.674.674 0 00.394-.064l.085.026v.043a.57.57 0 00-.266.061l-.042-.013-.014.043a3.16 3.16 0 00.69-.115l.124.04.013-.043h.184l.013-.042.128.04.013-.043h.184l.013-.043.128.04.013-.042h.282l.013-.043.085.027.014-.043.085.027.013-.043.085.024.013-.043h.28l.069-.072.085.027.069-.07.085.025.125-.099.085.027c.035 0 .048-.048.112-.059-.053-.09-.266-.138-.412-.176l.18-.13.086.026.18-.13.086.027.122-.104.088.026.178-.13.088.026.122-.1.085.026.125-.102.085.027.181-.13h.141l.07-.072.084.026.181-.13.082.026.181-.13.532-.027.07-.07.085.025c.184-.065.381-.084.574-.053-.059.093-.035.077-.125.1l-.013.043a.35.35 0 00.197-.032l.013-.042h.14l.07-.072.085.024.18-.13.086.026.401-.248.49-.221.026-.088.266-.104.027-.085.21-.075.027-.085.154-.045.027-.086.154-.045.026-.085.152-.045.027-.086.154-.045.026-.085.099-.016a1.79 1.79 0 01.082-.115l.21-.074.027-.086.266-.104.024-.085.88-.426.013-.043c-.17.024-.332.085-.476.179l-.069.072-.085-.027-.625.365-.085-.027-.07.072-.486.222-.013.045h-.045l.127-.102h.043c.096-.077.138-.16.247-.202v-.043a.233.233 0 00-.194.032l-.17-.053.013-.043c.064 0 .13-.024.194-.032l.07-.072.085.027.18-.13.085.026.293-.189.085.027.404-.25.083.026.404-.248h.141l.013-.043.043.014a.436.436 0 01-.237.16l-.026.085c.296-.112.577-.26.837-.44l.878-.429c.03-.037.056-.074.082-.114l.434-.192.026-.085.322-.134.027-.085.207-.075.083-.114h.045l.024-.085-.418.149-.071.072-.072-.07-.027.086-.486.22-.027.086h-.043l-.125.101-.082-.026-.293.189-.085-.027-.236.163a1.076 1.076 0 00-.309.09h-.043l.096-.157.099-.016.095-.157.043.013v-.184l.21-.074.18-.133h.043l.027-.086.266-.104.027-.085.266-.104.029-.098.266-.104.026-.085.266-.107.027-.083.266-.104.027-.087.265-.105.07-.071.085.026.069-.072.266-.104.026-.085.532-.25.027-.088.154-.043.362-.266h.042c-.045.042-.087.04-.111.058l-.027.085-.098.017-.027.085-.098.016-.027.085-.098.016-.027.085h-.043l-.026.085-.096.017-.165.229h-.042c-.027.04-.056.077-.083.114l-.098.016-.096.157-.098.02c-.162.13-.3.346-.498.404l-.026.085.207-.074.027-.085.154-.046.027-.085.154-.045.026-.086.155-.045.026-.085.152-.045.027-.086.1-.016.027-.085.096-.016c.03-.037.056-.077.082-.115h.043l.096-.157.1-.016.163-.229.098-.016.096-.157h.043l.026-.085.043.013.026-.085.043.013.027-.085.042.013.11-.2.098-.016.026-.085-.311-.15zm18.005-28.56h-.043l.027-.085h.042l-.026.085zm0-.14l-.043-.014.027-.085h.042l-.026.098zm-.019-.24h.043l-.027.085-.042-.014.026-.072zM.75 41.226h.042l-.026.085H.723l.027-.085zm0 .325l-.043-.013.04-.128H.79l-.04.14zM4.106 30.44l-.444 1.124c-.067-.15.128-.373.13-.568H3.75l.08-.266h-.043l.027-.085H3.77l.441-1.128.086.027.026-.082c.059.12-.024.215-.021.365h.042L4.292 30h.043a1.82 1.82 0 01-.24.431l.011.009zm3.388-7.312c-.178.266-.337.653-.532.914l-.066.213-.043-.013-.053.17h-.042l-.067.213H6.65l-.078.267-.04-.056-.066.213-.043-.013-.08.266-.042-.013-.08.266h-.042l-.093.299-.043-.014-.08.267-.042-.016-.093.298h-.043l-.375.912h-.04l-.093.298h-.042l-.093.298-.043-.013-.08.267-.042-.014-.553 1.183c-.054-.122.077-.354.117-.533 0-.074 0-.149.02-.226l.043.013.266-.669 1.15-2.494c.178-.263.328-.546.446-.842l.114.083c.337-.643.677-1.285 1.019-1.927a.886.886 0 01-.114.403h.01zm.101 7.037l-.08.267-.042-.014c-.104.16-.08.323-.215.4v.043l-.115-.083c0 .136-.021.266-.034.41h.042l-.314.557-.042-.013.04-.128.042.013s.045-.168-.016-.098v.042H6.82l.3-1.119.043.013.04-.127h.042l.096-.158.045.014c.096-.13.056-.405.059-.496l.215-.533c.093 0 .035.019.099-.016a1.31 1.31 0 00.308-.7h-.043l.067-.214c.16-.24.287-.498.38-.77.056.128-.173.709-.236.909-.24.623-.333 1.324-.639 1.801zM19.72 9.585l.096-.016.026-.086.155-.045.026-.085.154-.046.027-.085.098-.016.024-.085.155-.045.026-.086.099-.016a.868.868 0 00.22-.266l.085.027a1.741 1.741 0 01-.734.706l-.265.104-.024.085c-.099.072-.205.03-.322.133l-.043-.013.197-.165zm-4.556 8.212h.043l.026-.085h.043l.04-.128.042.013.027-.082.043.013.026-.085h.043l.026-.086h.043l.109-.2c.104-.08.194-.177.266-.287h.042c-.069.117-.135.237-.204.357l-.043-.014-.3.515-.043-.014-.027.086-.042-.014-.027.085h-.042l-.027.083h-.043l-.026.085h-.043l-.082.115c-.059.021 0 0-.056.03h-.043a.918.918 0 01.216-.382l.013-.005zM7.321 33.449l-.042-.014.093-.298c0-.506.348-1.146.516-1.663.093.142.072.341.178.477-.205.587-.574.914-.758 1.503l.013-.005zm3.458-7.853a3.348 3.348 0 01-.42.898l-.064.213c-.224.325-.402.773-.628 1.117l-.104.34h-.042l-.093.3-.043-.014-.106.341h-.043a43.49 43.49 0 00-.242.626l-.83 1.471h-.042l.093-.298h.043l.21-.682c.233-.452.411-.93.532-1.423l.186-.597.598-1.029c.077.053.04 0 .072.07.133-.078.14-.333.245-.485h.042l.08-.267.042.013.136-.285c.187-.207.34-.444.45-.7.037.093-.038.26-.064.397l-.008-.006zM2.042 60.503l.024-.083-.072-.072.027-.082-.072-.07v-.184l-.072-.072v-.266l-.071-.07v-.183l-.072-.07.026-.085a1.033 1.033 0 01-.063-.394c.103.066.077.088.186.152l.04-.128-.043-.014.024-.085c.306.325.332.94.354 1.42l-.048.45c.037.137.072.267.106.408a1.65 1.65 0 01-.279-.56l.005-.012zm3.458-.8h-.043c-.058-.402-.247-.76-.292-1.167.089.048.163.12.215.208v.043l.085.026-.013.043c.034.042.066.085.1.125.043.125 0 .205.091.31l-.143.412zM20.446 14.85l-.098.016-.027.085-.098.016-.027.085-.098.016-.027.086-.098.016-.083.114-.042-.013-.027.085-.098.016-.027.085-.098.016-.027.086-.096.016-.026.085-.101.016-.027.085-.096.019-.095.157-.099.016-.026.085-.099.016-.026.086-.099.015-.026.088-.099.016-.026.086-.099.016-.026.085-.099.016-.026.085-.096.016-.096.157-.1.016c-.027.04-.054.078-.083.115l-.043-.013-.096.157-.098.016-.024.085h-.045c-.075.072-.03.093-.139.144l-.013.043a1.11 1.11 0 00.351-.078l.085.027.07-.072c.093-.027.095.032.196-.032h.043l-1.737 1.844-.04.128h-.042c-.035.053-.064.104-.096.157l-.045-.013-.038.128h-.045l-.095.157h-.043l-.04.128h-.042l-.096.157h-.043l-.04.125-.531.253-.027.086-.098.016c-.136.112-.21.266-.376.303l-.023.086h-.046a1.4 1.4 0 01.33-.459l.04-.128h-.043l-.247.344-.042-.013-.123.242-.042-.013-.027.085-.042-.013-.04.128h-.04l-.05.17h-.046l-.037.128h-.045l-.038.128h-.045l-.037.128h-.045l-.027.085-.042-.013c-.117.245-.182.51-.195.78h.043l-.08.267-.042-.013-.054.17h-.042l-.027.086-.042-.014-.027.086-.098.016-.027.085-.098.016-.027.085-.098.016-.024.085-.154.046-.027.085-.043-.013c-.055.04-.058.072-.125.098v.046l-.042-.014c.04-.082.08-.162.122-.242h.043l.066-.213h-.045a3.38 3.38 0 01-.189.314h-.04a.075.075 0 00.016.099.496.496 0 01-.29.33l-.026.085h-.043c.121-.219.264-.425.426-.615l.122-.243h.043l.04-.128h-.046c-.095.137-.21.259-.343.36l-.026.085h-.043c-.127.126-.194.293-.346.36l-.026.085h-.043c0-.088.045-.037-.016-.098-.12.226-.279.43-.468.602-.066.107-.04.093-.167.088-.109.218-.263.41-.453.562l-.042-.013-.027.082-.042-.013c-.045.064.016.09.016.099a.96.96 0 01-.083.114l-.085-.026-.505.73-.053.17h-.043l-.053.17-.043-.012-.053.17h-.042l-.053.17a1.688 1.688 0 00-.288.475h-.042c.066-.168.135-.333.202-.498.149-.224.314-.533.465-.746l.064-.214.045.014.064-.213.045.013.05-.17.046.013.05-.171h.043c.053-.122.11-.245.162-.37h.043l.053-.17.043.012.053-.17h.043l.053-.17h.042l.053-.171.043.013.231-.442.043.013.135-.285h.043c.075-.133.146-.266.218-.4l.043.014.04-.128h.042l.04-.128h.043l.04-.128.042.013.04-.128h.043c.069-.117.135-.237.204-.357l.043.014.04-.128h.042l.027-.085h.042c.04-.08.08-.16.123-.24h.042l.027-.086h.042a7.29 7.29 0 01.11-.2l.042.014c0-.024.08-.17 0-.141v.042l-.045-.013c.137-.19.3-.36.484-.504l.162-.229.101-.016.027-.085.109-.059.026-.085.112-.059.027-.085.098-.016c.112-.096.141-.226.266-.288l.027-.085h.042c-.088.219-.266.517-.455.56l-.024.085c.23-.09.435-.234.596-.421l.027-.085.042.013.027-.085.042.013.04-.128h.043l.026-.085h.043l.096-.157.042.013.04-.128h.043l.026-.082a.853.853 0 01.25-.203l.014-.043h.042c-.14.424-.691 1.213-.973 1.333l-.067.213.043.013c.163-.239.37-.444.609-.605l.024-.085h.045l-.08.267h.043l.356-.533.043.013.026-.085.043.016c.04-.083.08-.163.122-.243l.043.013.026-.085h.043l.04-.128h.042l.163-.229.042.014.027-.086h.042l.027-.082h.043l.026-.086.112-.058.026-.086.099-.018.026-.083.155-.045.026-.085.154-.046.038-.128.045.014.05-.17h.046l.037-.129h.045l.037-.128h.046l.037-.128.045.014.037-.128.099-.016.053-.17.042.013.123-.243.042.014.027-.086.042.014.04-.128h.043l.026-.086h.043l.04-.128h.042c.056-.077.112-.151.165-.229h.043l.032-.098h.042l.163-.23.098-.015c.056-.075.109-.152.165-.23l.098-.015.027-.086.042.014.027-.086.098-.016.096-.157.098-.016c.131-.144.28-.271.442-.378l.013-.043.128.04a1.49 1.49 0 00.082-.114l.043.013.03-.085.098-.016.026-.086.155-.045.023-.085.099-.016.026-.085.155-.046.026-.085.099-.016.013-.043.114.083.027-.088.043.013a5.36 5.36 0 00.265-.287l.043.013c-.28.383-.524.618-.766.855v-.021zm2.763-1.993h-.042l-.027.085-.101.016-.024.085h-.045a.341.341 0 00-.136.144.72.72 0 00-.476.179l-.04.128h-.042l-.096.157-.043-.014-.04.128-.098.016-.026.086-.099.016-.026.088h-.043l-.082.111c-.08-.002-.16.004-.24.02v-.043h-.042c.047-.142.047-.158.151-.187l.027-.085a.297.297 0 00-.237.16l-.042-.014c.073-.109.163-.206.266-.288l.026-.085h.043l.04-.128h.042l.096-.157.042.013.096-.157.099-.016.026-.085.099-.016.026-.085.154-.046.014-.045h.14c.188-.24.335-.51.434-.8l.266.363c.04.107-.056.03.045.152l-.106.346.021-.042zm2.577-2.75c-.095.157-.2.11-.332.176l-.404.25-.085-.026c-.094.029-.155.12-.28.146l-.013.043h-.043l.293-.19h.043l.026-.085.099-.016.625-.365.127.04c-.05.056.006.03-.056.048v-.021zM83.521 33.85l.016.099.085.026c.024.072.051.142.075.21l.085.028.133.322.085.027c.056.125.11.25.162.375l.085.027.046.154.348.534v.042a.46.46 0 01-.173-.194l.013-.043-.085-.027.014-.042-.101-.126-.016-.098-.086-.027-.132-.32-.086-.026-.074-.21h-.043l-.018-.102-.083-.024c-.055-.125-.109-.266-.162-.378-.053-.112-.178-.174-.218-.35.035.054.08.1.13.145v-.022zm-6.59-8.364v.043l.083.026L77 25.6l.088.026.016.1.085.026-.013.045.228.163.017.098.156.096v.043l.085.026-.013.043.083.027-.014.042.085.027-.013.043.085.026-.013.043.085.027.059.111.085.027.016.099.228.165.016.096.157.096c0 .034 0 .066.019.098l.157.096.016.099c.05.035.103.064.157.098l.016.096.156.096.016.099.157.096.016.098c.128.16.317.254.375.445-.106-.096-.178-.22-.266-.32l-.191-.06-.016-.1-.128-.04-.016-.098-.157-.096c-.016-.05-.029-.104-.045-.154l-.157-.096c0-.032 0-.067-.018-.099l-.157-.096-.016-.096-.157-.096-.016-.098-.229-.165-.016-.099-.085-.027-.058-.111-.083-.027v-.043l-.088-.026-.016-.099-.082-.027-.059-.109-.085-.027v-.042l-.085-.027-.016-.101-.087-.027-.056-.109-.085-.027.013-.042-.085-.027c0-.035 0-.067-.019-.098-.1-.123-.194-.104-.245-.267.067.013.104.043.144.07v-.022zm-11.457-7.264l-.013.046a1.373 1.373 0 01-.532-.267l.545.221zm-3.213-14.75l-.013.043-.582-.23.04-.127.425.133a.336.336 0 00.13.202v-.021zm-2.837-1.066l.013-.043c.09 0 .098-.016.098-.016l.213.067v-.043l.383.118c.373.148.763.254 1.16.314.175 0 .35.16.481.104l.173.195-.013.042c-.203-.066-.67-.266-.82-.208l-1.688-.53zm1.016.784l.68.213-.018-.102 1.362.424c.015.053.029.104.045.155l.114.082-.013.046-2.311-.675a4.352 4.352 0 00-.92-.333c.236-.088.8.336 1.06.205V3.19zm-1.117-.16c-.078-.051-.038 0-.072-.07.077.067.037.027.072.086V3.03zm-7.181-.179c.167-.002.333-.028.492-.08l.085.027.013-.043h.28l.013-.042.088.026.013-.042.17.053.014-.043.124.04.014-.042.215.066.014-.042.252.077c.332.006.66.061.976.165l.014-.043-.128-.04.026-.085 1.032.133v-.042l.083.026.013-.042.412.176c-.197.01-.394-.02-.58-.088l-.013.042c.235.099.483.16.737.182l.266.08c-.027-.086 0-.067-.101-.126l.013-.042 1.258.298.013-.043.383.12.014-.042.425.13v-.042l.426.133.013-.043.638.197v-.037c.266 0 .756.293.963.205l.34.107.014-.045-.085-.024.013-.046-.596-.184.013-.042-.593-.187.014-.042-1.434-.493c.189-.083.503.133.75.138a5.311 5.311 0 011.503.421l1.404.578v.043c.151.088.58 0 .75.141l.016.099 1.04.557v.042l.127.04-.013.043.17.053-.013.043.17.053-.013.043.17.053-.013.043.17.053a3.3 3.3 0 00.7.453c-.248.12-.594-.184-.92-.192l-.014.043-.51-.16.013-.043-.085-.026c-.04-.043.034-.118-.144-.139l-.013.043-.34-.107-.014.043-.295-.09v.042l-.298-.093-.013.042c-.338 0-.91-.351-1.165-.455l-1.221-.427.013-.042-.55-.174.013-.042a3.102 3.102 0 00-.992-.267l-.596-.186-.013.042-1.346-.325-.013.043-.17-.053v.042l-.128-.04-.013.046-.17-.054-.014.043-.17-.053-.013.042-.17-.053-.014.043-.295-.094c-.364 0-.819-.127-1.173-.13l-.481-.101c-.394 0-.88-.123-1.271-.118l-.577-.085-.014.043-.085-.027-.013-.048zm-2.625-.266v-.043l.266.035v-.043l.17.053c.33-.013.724 0 1.064 0 .175 0 .348.158.481.102l.468.146c-.12.059-.218-.024-.367-.021l-.013.042-.213-.064v.043l-.212-.067-.014.043-.481-.104-.013.043-.17-.05-.014.042-.17-.053-.013.042-.17-.053-.014.043-.17-.054a.905.905 0 00-.492.083h-.043l.053-.173.067.008zm-.753.325l.014-.043.31.048.014-.043.309.051.013-.043.128.04v-.042l.17.053v-.045l.396.077.013-.04.383.12.014-.043.665.115.013-.043.085.027.013-.045a2.124 2.124 0 00-.593-.043l-.085-.027.013-.042h.141l.014-.046.085.027c.024-.024.045-.048.069-.07l.17.051.013-.042.17.053v-.043l.17.054v-.043l.171.053v-.042l.17.053v-.045l.354.064-.013.042.167.054.016-.043.396.077.014-.045.252.08.014-.043.085.027.013-.043.128.04.013-.042.266.077.013-.043.213.067.013-.043.266.08v-.037l.213.066v-.042l.266.08.013-.046.266.08.014-.042.68.213v-.043l.266.078v-.043l.266.08.014-.043.212.067.014-.043.265.078c.167-.004.334.017.495.06-.021-.052-.04-.055-.058-.111.287-.016.742.184 1.063.288l1.8.514-.012.043.297.093-.026.085-1.715-.488-.014.043-.17-.053-.013.042-.253-.08-.013.046-.51-.16-.014.043-.34-.107-.014.043-.298-.091-.013.043-.266-.08v.042l-1.26-.298c-.55.037-1.1-.01-1.636-.136v.043l.694.17.013-.042.298.09.013-.042.298.093.014-.043.265.08.014-.043.213.067.013-.045.082.026.014-.042.297.093.014-.043.694.168V3.88l.298.093.013-.043.383.12.013-.042.298.09.014-.042.765.24v-.043l1.107.343.013-.042.68.21a5.16 5.16 0 011.065.288l.425.133-.013.043 1.84.533-.013.042.936.29.016.1.128.04c.242.15.505.264.782.335-.144.067-.585-.128-.78-.194.096.154.447.125.625.242l-.013.043.638.197v.043l.511.16V7.1c.303.2.606.09.891.267l-.013.042.266.078-.014.045.37.16-.013.045.609.141-.014.043.298.093-.013.043.266.08-.013.042.297.094-.013.042.213.067-.013.042.175.054v.042l.17.054-.013.042.128.04-.014.043.17.053-.013.043c.184.117.224-.08.41.034l-.013.043.396.219.019.098.082.027-.013.042.755.421-.013.043.242.123-.014.042.157.096-.013.046.085.024-.013.045.356.202-.013.043.213.067.013-.043c.166.009.327.06.468.146l-.013.043.284.136v.043l.128.04v.042l.125.04-.013.043.127.04-.013.042.128.04c.141.147.311.263.5.341l-.014.043-.127-.037v.043l.399.215-.014.043.285.136-.013.043.17.053v.042l.17.054-.013.042.125.04-.014.043.128.04v.043l.17.053-.013.043.285.135-.014.043.128.04-.013.043.127.04-.013.042.085.027-.013.045.242.12-.014.045.157.096-.013.043.128.04-.014.043.157.095-.013.043.056-.03.2.11-.014.043.085.026-.013.043.125.04-.013.043.085.026.016.096c.053.035.106.064.157.099v.042l.087.027-.013.043.082.026.059.112.085.027.016.096.229.165.016.099.085.026-.014.043.086.027c.037.053-.046.12-.04.127l.085.027.058.112.085.027-.013.042.085.027c-.08.045-.045.053-.04.128-.417-.381-.95-.962-1.643-1.167.056.125.16.122.266.22l-.014.043.085.027-.013.043.128.04-.013.042.082.027-.013.043.127.04-.013.042.085.027v.043l.128.04-.013.042.085.027-.014.042.458.33-.014.043.086.027-.014.043.125.04v.042l.085.027-.013.043.157.095-.013.043.127.04-.013.043.085.026v.043l.157.096-.013.043.127.04v.024l.083.026v.043h.183l-.013.043.128.04-.014.042.157.096-.013.043.128.04-.014.042.085.027v.043l.128.04c.048.037-.034.05.03.055l.013-.042.042.013v.043l.085.026.016.099.157.096.016.098.115.083-.014.04.157.096.016.099.088.026.058.112.083.024v.045l.088.027-.014.043.2.109-.013.043.082.026c0 .032 0 .067.019.099l.085.027v.042l.085.027.016.096.085.026.016.102h.14l-.013.042.086.027.016.099.085.026.016.099.085.026.016.099.085.027.016.098.085.027.016.098.085.027.016.099.085.026c.013.05.03.102.045.155l.085.026.016.1.115.082-.014.042.085.027c.014.05.03.101.046.152l.085.026.016.1.085.026c.016.053.032.104.045.154l.085.027c.016.05.03.101.045.154l.085.027c.016.05.032.101.046.155l.085.024c.016.053.032.104.045.154l.085.027c.016.053.032.104.045.154l.085.027c.016.05.032.104.046.155l.085.026c.026.07.05.139.074.21l.085.027c.016.051.032.102.045.152l.086.027.016.098c.047.058.09.118.13.182a1.798 1.798 0 01-.3-.235l.013-.042-.128-.04.013-.043-.074-.024v-.043l-.128-.04.013-.042-.239-.123v-.037l-.128-.04.014-.043-.128-.04.013-.042-.125-.04v-.043l-.127-.04v-.043l-.128-.04.013-.042-.127-.04.013-.043-.085-.026-.016-.099-.085-.027-.016-.098-.085-.027a2.306 2.306 0 01-.045-.154l-.088-.027c0-.05-.03-.101-.046-.155l-.082-.024-.074-.21-.085-.027-.046-.154-.114-.083-.016-.098-.085-.027-.016-.099-.085-.026-.016-.099a.835.835 0 00-.266-.221l.024-.227a3.554 3.554 0 01-.516-.44l-.128-.04v-.042l-.127-.04.013-.043-.128-.04.014-.042-.128-.037.013-.046-.228-.162.013-.043-.085-.026v-.043l-.157-.096-.016-.099-.157-.096v-.042l-.085-.027.013-.043-.085-.026-.059-.112-.085-.027-.016-.098-.085-.027-.058-.112-.085-.027v-.042l-.085-.027.013-.042-.083-.027.014-.043-.157-.096-.016-.098-.085-.024.013-.045-.213-.064c-.175-.195-.345-.39-.518-.584l-.128-.04v-.043l-.085-.026v-.04l-.2-.11.014-.042-.128-.04.013-.043-.356-.205.013-.042-.157-.096.014-.043-.085-.027.013-.042-.128-.04v-.043l-.082-.027.013-.042-.088-.027.014-.043-.083-.026.013-.043-.266-.08.014-.04-.128-.04.013-.042-.127-.04.013-.043-.17-.053.013-.043-.157-.096.014-.042-.242-.123v-.043a.072.072 0 00-.099.016l-.24-.122.014-.043-.085-.026.013-.043-.242-.123.014-.042-.085-.027v-.043l-.697-.45v-.043l.24.123-.014.043.17.053.013-.045a6.05 6.05 0 01-.715-.55l-.17-.052v-.043l-.128-.04.016-.043-.17-.053v-.043l-.298-.093.013-.043-.157-.095.014-.043-.128-.04.013-.043-.157-.096v-.037l-.242-.123.014-.042-.085-.027.013-.043-.128-.04.013-.042-.125-.04.014-.043-.128-.04v-.042l-.128-.04v-.04l-.17-.053.014-.043-.128-.04.013-.043-.17-.053.013-.043-.212-.066.013-.043-.17-.053-.016-.099-.426-.133.013-.04-.17-.053a2.01 2.01 0 00-.66-.44l-.013.043.242.122-.013.043-.74-.323.014-.042-.34-.107V9.1l-.34-.107.013-.043-.267-.08.014-.042-.085-.027.013-.042-.17-.054.013-.042-.17-.054.013-.042-.213-.067.014-.043-.266-.08.013-.042-.266-.08.013-.04-.739-.322.013-.043-.17-.053.07-.072a.78.78 0 01-.397-.078l.013-.042-.085-.027.014-.043-.937-.293v-.04L61.52 6.027l-1.266-.402-.013.043-.596-.187-.013.043-.68-.21a1.183 1.183 0 00-.456-.19l-.013.043-.723-.224-.014.042-.468-.146-.013.043-.38-.118-.014.043-.34-.107-.013.043-.298-.093-.013.042-.34-.104-.014.043-.298-.093-.013.042-.298-.093-.013.043-.298-.09-.014.042-1.029-.136c.141.086.3.137.466.147l.013-.043.215.066v-.042l1.639.266-.014.046c-.093 0-.034-.019-.098.016l-.085-.027c.143.082.303.132.468.144l.013-.043.383.12.013-.043.468.147.014-.043.596.184V5.2l.678.213a5.12 5.12 0 011.12.3c-.094.044-.301-.042-.44-.09l-.013.043.266.08-.013.043.128.04-.014.042.71.267v-.043l1.064.33-.013.043a.178.178 0 00-.11.059l-.297-.094.013-.042c-.353-.112-.853-.333-1.162-.315l-.082.115c.27.195.58.323.91.376v-.043l.55.173-.014.043.085.026-.013.043.766.237-.013.046.468.143.016.099.707.266-.013.043a1.506 1.506 0 01-.606-.144s0-.037-.072-.07l-.51-.156v-.046c-.224-.144-.64-.175-.839-.306l-1.529-.477a5.045 5.045 0 00-1.077-.288c-.282 0-.654-.229-.907-.234l-.593-.187-.013.043-1.035-.267-.013.043-.383-.12-.013.043-.386-.12-.013.045-.34-.106-3.445-.467-.013.043-.17-.053-.013.045-.397-.077-.013.042-.213-.066c-.74 0-1.553-.086-2.271-.054l-.17-.053-.013.045-.125-.04-.014.043-.127-.04-.014.043-.17-.054-.013.043-.128-.04-.013.045-.128-.04-.013.043-.128-.04-.013.043-.128-.04-.013.042-.593-.045-.013.045-.086-.026v.042l-.127-.04-.014.043-.124-.04-.014.043-.127-.04-.014.042-.127-.037-.014.043-.127-.04-.014.042-.085-.026v.032L45.3 4.71l-.013.043-.083-.027-.013.045-.128-.04-.013.043-.085-.027-.013.043-.266-.037-.014.042-.085-.024-.013.043-.125-.04-.016.043-.226-.024-.013.042-.083-.026-.013.042-.128-.037-.013.037h-.184l-.013.043-.127-.04v.043h-.184l-.013.042-.128-.04-.013.043h-.184l-.013.042-.125-.037-.013.043h-.184l-.013.042-.085-.026-.014.042-.127-.04-.014.043h-.281l-.014.043-.085-.027-.013.043-.226-.024-.013.045-.086-.027-.013.043h-.183l-.014.043-.082-.027-.013.043-.086-.024-.013.042-.085-.026-.013.042-.085-.026v.042h-.184v.035l-.771.085-.07.072-.084-.027-.112.062-.085-.027V5.5h-.28l-.069.072-.085-.027-.111.059-.085-.027-.014.043-.082-.027-.072.075h-.28l-.068.072h-.184l-.069.071h-.184l-.069.072h-.183l-.07.072h-.183l-.069.072-.085-.026-.013.042-.085-.026-.07.072h-.14l-.014.042h-.183l-.07.072-.085-.026-.069.071-.082-.026-.072.072-.083-.027-.069.072-.085-.027-.069.072-.085-.026-.07.072-.084-.027-.07.072c-.167.05-.324.03-.462.136l-.085-.027v-.042l.042.013.014-.043-.298-.09.013-.046c.24.014.402-.138.617-.18l.013-.043h-.14l-.014.042-.085-.026-.013.045-.083-.027-.069.07-.085-.025-.125.102h-.157l-.04.128h-.138l-.07.072h-.183l-.069.072h-.183l-.072.071h-.28l-.069.072h-.183l-.07.072h-.183l-.069.072h-.183v.043h-.141l-.07.072a2.097 2.097 0 00-.56.152l-.128-.04.739-.424.154-.045.027-.085.098-.016a1.79 1.79 0 01.237-.16l.027-.086a.797.797 0 00-.407.107h-.043c.128-.12.17-.083.32-.133l.124-.101.085.026a.908.908 0 01.07-.072h.183a.892.892 0 01.07-.072h.183l.013-.045.085.027v-.043l.083.027.013-.043.077.024.013-.043.083.024v-.04l.085.027v-.043h.183l.07-.072.084.027c.112-.034.22-.079.322-.133h.043c-.115.189-.2.125-.29.33a.933.933 0 00.351-.077l.082.027.07-.072h.183l.07-.072h.183l.069-.072.085.026.07-.071h.183l.069-.075a1.5 1.5 0 00.463-.136h.042a.314.314 0 00-.327-.15l-.013.046c-.112 0-.032-.061-.141 0l-.043-.013a1.47 1.47 0 01.588-.24v-.043a.56.56 0 00-.351.078l-.085-.024.013-.046a.374.374 0 00.197-.029l.013-.045.088.026a.857.857 0 01.07-.069l.082.027.069-.075.085.027.069-.072.085.026c.024-.024.045-.048.07-.069h.183c.024-.024.045-.048.069-.07h.282l.069-.071h.183l.112-.059.083.027.069-.072.085.027.112-.062.085.027.013-.043.082.027v-.043l.086.027.013-.043h.282l.013-.045h.184L39.7 4.5l.127.04v-.042h.184v.042l.17.054c0-.035 0-.067-.018-.099h.045v.043l.082.026c.061-.018-.029-.056-.029-.056l.07-.071.042.013-.07.072c.195.016.39-.003.578-.056.053-.035 0 0 .056-.03l.013-.042a1.006 1.006 0 00-.49.083l-.042-.014c.099-.061.206-.107.319-.136l.085.027.07-.072.084.027.07-.072.085.026.013-.042h.183l.07-.072h.183l.07-.072h.183l.013-.043.082.027.014-.043.085.024L42.04 4l.085.026.112-.058.082.026.07-.072.085.027.013-.043.774-.085.069-.072h.183v-.04l.083.024.07-.07.084.027.112-.06.085.026.07-.072.082.027v-.043l.085.027.069-.072.085.026.013-.045h.043l.013-.043c-.423-.085-.763.056-1.109.123l-.085-.027-.013.043-.085-.027-.014.043-.266-.035-.013.043-.082-.027c.127-.077.175 0 .279-.146l-.383-.12.026-.086c.173-.02.342-.062.503-.125h.282l.013-.042h.184l.013-.043.128.037.013-.042.085.026.014-.042.124.04.016-.043.083.027.013-.043.128.037.013-.042.085.026.014-.042.265.037.014-.043.41.035.013-.043.082.024.013-.042.128.04.013-.043.41.035.013-.043.085.027.014-.043.266.035.013-.043.085.027.013-.043.128.04.013-.043.083.027.013-.043h.282v-.037l.354.061v-.042l.127.04.014-.043.085.027.013-.043.266.035.013-.043.128.04v-.04l.128.04.013-.043.127.04.014-.045.127.04.014-.043.31.051.014-.043.287.086zM76.21 26.356l.014-.043c-.13-.128-.197-.077-.245-.266.135.098.256.214.36.346l.156.096.016.098c.109.128.287.19.359.347a1.657 1.657 0 01-.36-.347l-.084-.026.013-.043-.229-.162zm-3.866-3.169c-.141.054-.45-.242-.599-.325l.027-.085.572.41zM63.567 7.405v.043a1.272 1.272 0 01-.625-.24l-.042-.014.013-.045.17.053c.447-.013.732.208 1.146.36l.027-.085.298.093.069-.074.34.106-.026.085-.495-.058-.013.042-.125-.04-.014.043c-.023 0-.132-.12-.242-.123l-.013.043-.298-.093.014-.043-.184-.053zm-.723 11.05c.077.053.037 0 .072.07-.077-.051-.038-.006-.072-.07zM61.76 6.611l-.212-.067.013-.042.213.066-.014.043zM43.698 2.899c.05-.035 0 0 .059-.03v-.042l.127.04.014-.043.082.027-.013.043-.226-.024v.042l-.043-.013zm.351-.077c.077.053.04 0 .072.07-.077-.054-.037-.006-.072-.07zm2.266-.23l.013-.042.083.024.013-.043h.184l.013-.042.127.04a3.105 3.105 0 011.086-.035l-.014.043-.127-.04v.042l-.085-.026c.026.04 0 .072.111.082l.014-.042.127.04V2.55l.128.04.013-.045.17.053.014-.043.31.051v-.043l.128.04-.013.043a2.442 2.442 0 00-.731.099l-.083-.027v.043l-.127-.04-.014.045-.085-.027-.013.043-.128-.04v.042l-.085-.026-.013.042-.266-.034-.013.042-.41-.034-.013.042-.085-.026-.014.042-.17-.053-.013.043-.128-.04-.013.042-.128-.037-.013.043-.354-.064-.013.042-.17-.053-.014.043-.308-.048-.013.042-.085-.026.013-.043.774-.088.013-.045.085.027.014-.043h.183l.013-.043.128.04-.016.022zM43.865.71a3.17 3.17 0 00.676-.07l.128.038.013-.043h.184l.013-.042.128.04.013-.043.082.026.014-.042.127.037.014-.042.085.026.013-.042.128.04.013-.043.085.027.013-.043.266.037.014-.042.127.04V.525l.128.04.013-.043.128.038V.517l.127.04.014-.043.31.05V.523l.171.05V.53c.077.054.037 0 .072.07l-.49.223-.58-.088-1.082.038-.31-.05-.014.042-.128-.04-.013.042-.128-.04-.013.043-.311-.048-.014.043-.085-.027.014-.043.056.014zM42.347 2.9l.114.083.125-.102.128.04.013-.042.128.04.013-.046.085.027.014-.043.127.04v-.042l.128.04.013-.043.083.027.013-.043.266.035.013-.043.043.013c-.128.11-.213.046-.394.064l-.013.046-.083-.027-.013.043-.127-.04v.042l-.086-.026v.042l-.127-.04-.014.043-.085-.024-.013.043c-.136.016-.106-.056-.24.018-.076-.053-.036 0-.071-.072h-.043l.014-.04-.011-.013zm-.07.072c-.076-.05-.036 0-.07-.07.076.054.036.006.07.07zm-.409-.035c.093 0 .035.019.099-.016l.085.027-.014.043c-.093 0-.034-.019-.098.016l-.085-.027.013-.043zm-.069.075c-.074-.053-.037 0-.069-.07.077.046.037.003.07.07zm-.24.016c-.074-.05-.036 0-.068-.07.074.054.037.006.069.07zm-.334.037c-.077-.053-.04 0-.072-.069.077.05.037.005.072.07zm-8.646 2.321l.085.027.18-.13.086.026a4.43 4.43 0 00.18-.13l.086.026.125-.101.085.026.125-.1.085.026.122-.102.085.027.07-.072.085.027.069-.072h.14l.126-.101.085.026.125-.101.085.027.125-.102.082.027.125-.104.085.027.125-.101.083.026.125-.101.085.027.013-.043h.141l.07-.072c.052.032.069.08.17.053l.122-.101.088.027.178-.13.085.026.237-.163.085.027.122-.101.085.026.125-.101.085.027.125-.102.083.027.069-.072.085.027.07-.072.084.026.014-.045.17.053.013-.042.085.026.07-.071h.183l.069-.072h.183l.07-.072.085.026V3.48l.085.027.082-.115c.093.123.55.045.689.03l.128.04v-.043l.085.024V3.4l.226.024.013-.043H40l.013-.042.128.037.013-.04h.183l.014-.043h.282l.013-.042.082.026v-.042l.128.04.013-.04.085.026.014-.042.085.024.013-.043.083.027.013-.043.085.027v-.043l.085.027v-.043l.128.038.013-.043.085.027v-.04l.229.024.013-.043.125.04.013-.045.086.026v-.042l.127.04.014-.043.085.027.013-.043.128.04V3.07l.085.026.013-.042.125.04.013-.043.085.027.07-.072.085.026.013-.042.128.04.013-.043.085.027.013-.046.083.027.013-.043.229.024v-.042h.042c-.192.098-.401.16-.617.18l-.069.073h-.183l-.07.07-.085-.025-.069.072-.085-.027-.069.072-.085-.026-.07.072L42 3.368l-.07.072-.082-.027v.043h-.14l-.07.075-.088-.027-.122.101-.266-.037-.013.043-.086-.027v.043h-.183v.042l-.085-.026-.013.042-.083-.027-.013.043-.085-.027-.014.043-.085-.024-.013.043-.085-.027-.013.04h-.139l.014-.043h-.046l-.026.086h-.141l-.013.042-.083-.026-.013.042-.085-.024-.014.043-.127-.04-.014.043-.226-.024v.042l-.085-.026c.05-.035 0 0 .056-.03.114-.096.205-.037.351-.077l.07-.072h.183l.013-.045.085.026.014-.042.085.026.111-.058.083.027.069-.075.085.027.013-.043c.2-.002.4-.034.59-.096h.043l.014-.043a1.179 1.179 0 00-.532.067h-.184v.043l-.082-.027-.014.043-.085-.027-.013.043-.085-.027-.013.043-.085-.027-.014.043h-.183l-.014.04h-.183l-.013.042c-.2.002-.4.034-.59.096l-.043-.013v.042c.1.02.205.003.295-.048l.042.016c-.13.11-.295.086-.462.136l-.07.072h-.14v.043h-.184l-.07.072-.081-.027-.07.072-.085-.024-.069.072-.085-.027-.07.072h-.183l-.013.043h-.14l-.07.075-.085-.027-.07.07-.084-.025-.07.072-.085-.026-.069.072h-.183l-.07.071-.085-.026-.069.072-.085-.027-.069.072-.085-.027-.07.072-.084-.026-.07.072-.085-.027-.069.072-.085-.027-.069.075-.082-.027-.014.043h-.14l-.07.072-.085-.027-.125.101-.085-.026-.07.072h-.103l-.013.042-.085-.026-.07.072-.084-.027-.07.072h-.14l-.181.13-.083-.023-.125.1-.085-.026-.18.13-.113-.082-.013.043-.085-.027-.013.043-.085-.027.013-.042a.353.353 0 00.197-.032l.013-.046.085.027.07-.072.084.027.125-.102.086.027.122-.101h.14L34.792 5h-.183l-.027.086h-.14l-.014.045-.085-.027-.07.072c-.124.024-.122-.053-.239.019l-.042-.013a2.6 2.6 0 01.686-.254l.013-.042h-.14v.042l-.086-.026-.013.042-.077-.023-.07.071-.084-.026-.07.072h-.183l-.07.072-.084-.027-.07.072-.085-.027-.069.072-.085-.026a.596.596 0 01-.069.072h-.184a.595.595 0 01-.069.072l-.085-.027-.069.072-.082-.027-.07.072c-.138.043-.252.032-.364.123h-.042l.109-.147zm-1.272.493a.797.797 0 00.477-.178h.042c-.142.113-.31.189-.49.22-.05.038 0 0-.055.03l.026-.072zm.03 1.412l.013-.042c.085-.04 0 .088.016.098l.043.014c.127-.123.172-.083.321-.136l.123-.102c.189-.106.4-.168.617-.18-.155.242-.5.266-.726.38l-.181.13-.096.02-.04.127-.101.016-.027.086h-.042l-.027.085h-.042l-.04.128-.043-.013-.122.1-.088-.026-.069.072h-.184l-.069.072-.085-.027-.069.072h-.14l-.014.043h-.184l-.069.072h-.183l-.07.072c-.148.042-.287 0-.406.106l-.083-.026a.928.928 0 01.389-.205l.013-.043a.212.212 0 00-.21.075h-.043l.628-.365.085.026.346-.218.085.026.127-.1.647-.337zm-3.173.6l-.027.085h-.042l-.125.104-.375.163-.027.082-.098.019-.014.043c-.199.106-.47.111-.643.266h-.043c.032-.06.08-.11.139-.144h.042l.027-.088.098-.016.014-.042.098-.016.026-.086.21-.074.027-.086.21-.074.027-.085.319-.134.027-.085.321-.133.027-.088.098-.016.179-.13.085.026.236-.16.085.027.181-.13.085.023.181-.13.085.026.181-.13.085.026.07-.072.489-.22.026-.086c.184-.007.363-.064.516-.165l.046.013-.572.336-.085-.027-.46.267-.085-.027-.181.133-.085-.026-.181.13-.085-.027v.043l-.099.016-.05.17-.155.046-.026.085-.043-.013-.125.101-.614.28zm.947.858v.043a.422.422 0 00-.224.117h-.042l.096-.157c.093 0 .034.016.098-.016l.072.013zM17.127 47.513h-.043l.027-.086.043.014-.027.072zm-.093 1.652v-.142c.056.072.05.046.045.155l-.045-.013zm-4.992 23.598a1.145 1.145 0 01-.287-.267l-.085-.027c0-.032 0-.064-.019-.096l-.157-.096-.016-.098-.085-.027c0-.053-.03-.104-.045-.154l-.085-.027a6.66 6.66 0 00-.075-.21l-.085-.027-.016-.099-.231-.306.027-.085c.232.11.437.27.6.469.056.125.11.25.163.375l.085.027v.043c.042.06.085.122.13.18.05.14.12.272.205.393v.042l-.024-.01zm1.096 6.84a.375.375 0 01-.144-.136l.013-.046-.114-.082-.016-.096-.085-.027-.016-.098-.085-.027-.016-.099-.085-.026-.016-.099-.085-.027.013-.042-.114-.083-.016-.098-.085-.024-.046-.155-.082-.027c0-.034 0-.066-.019-.098l-.082-.027a3.335 3.335 0 01-.045-.154l-.085-.024-.016-.102c-.104-.13-.221-.2-.266-.36.042.043.037.086.056.113l.087.026.016.099.157.096.016.096.085.026.016.099.085.027.016.098.085.027.016.098.157.096.016.099.085.027.016.098.085.027.016.098.157.096.016.099.085.027v.042h.043l-.07.072.267.32v.04l-.016.01zm4.696 4.55l.014-.042-.085-.027v-.042l-.242-.123.015-.042c-.069-.038-.132-.075-.202-.11l.014-.042-.083-.027v-.043l-.127-.04v-.042l-.157-.096.013-.045-.128-.038.014-.045-.157-.096v-.043l-.085-.026.013-.043-.128-.04.014-.043-.157-.095v-.043l-.24-.123.014-.042-.085-.027.013-.042c-.266-.235-.811-.419-.944-.715.221.115.428.258.614.424.09.061.125 0 .183 0l-.013.043.128.04-.013.042.127.04-.013.043.128.04v.043l.127.04-.013.042.082.027v.042l.242.123-.013.043.085.026-.013.043.128.04v.042l.085.027-.014.043.24.122v.043l.085.027-.014.042.243.123v.042l.085.027-.014.043.24.122v.043l.085.027-.014.042.242.123v.042l.086.027-.016.043.127.04a.951.951 0 00.3.234l-.012.043-.253-.08.016.098-.567-.343zm57.977-23.501l-.133.423-.042-.013-.093.299c-.165.247-.327.589-.492.828l-.067.214-.042-.014-.447.842c-.71.978-1.269 2.188-1.965 3.176l-.163.37c-.308.427-.587.976-.898 1.402-.245.437-.492.877-.734 1.314-.266.368-.532.847-.798 1.202-.048.109-.099.218-.15.328-.354.511-.715 1.022-1.082 1.532h-.042l-.027.085h-.042l-.04.128h-.043l-.026.085h-.043l-.04.128-.042-.013-.165.229h-.043l-.024.085h-.045l-.024.085h-.045l-.024.086h-.045l-.027.085-.043-.013-.026.085-.043-.013-.026.082-.043-.013-.026.088-.11.056-.026.088-.101.016-.096.157-.096.016-.095.157-.099.016-.026.085-.099.016-.026.085-.099.017-.026.085-.099.018-.026.086-.096.016a1.75 1.75 0 00-.082.114l-.155.046-.026.085-.154.045-.083.115-.322.133-.026.085-.822.397-.628.365-.085-.026-.292.189-.086-.027-.178.133-.085-.026a3.924 3.924 0 00-.18.13L63.3 76.4l-.125.1-.085-.026-.122.102-.085-.027-.072.072h-.138l-.014.045-.085-.026-.125.1-.085-.026-.07.072-.084-.027-.07.072h-.183l-.069.072-.085-.026-.07.072-.084-.027-.014.043-.085-.027-.069.072h-.14l-.014.042h-.28l-.069.072h-.281l-.07.072h-.183l-.013.046-.086-.027-.013.043-.085-.027v.043l-.085-.027-.109.059-.085-.027-.07.072h-.183l-.013.043-.085-.027-.014.043h-.281l-.014.042-.127-.037v.042h-.28l-.013.043-.085-.026-.013.042-.085-.026-.014.042h-.183l-.014.043-.127-.04-.014.042h-.183l-.013.043-.085-.027-.014.043-.127-.04v.045h-.184l-.013.043-.128-.04-.013.043h-.184l-.013.045-.127-.04-.014.043-.085-.027-.013.043-.128-.04v.042h-.183v.043l-.128-.037-.013.042-.083-.026-.013.042-.229-.024-.013.043-.125-.04v.042l-.085-.023v.042l-.266-.037v.043l-.085-.027-.014.043-.265-.035-.014.043-.082-.027-.014.043-.127-.04v.042l-.085-.026v.042l-.41-.032-.013.043-.085-.027-.014.043-.41-.032-.012.043-.086-.027-.013.042-.127-.04-.014.043-.127-.04-.014.045-.125-.04v.043l-.127-.04-.014.043-.127-.04c-.774.088-1.647.048-2.42.136l-.971-.024c-1.09.085-2.274.016-3.38.069l-.17-.053-.014.045-.128-.04v.043l-.17-.054c-.603.027-1.287-.04-1.901-.032l-.764-.098-.013.045-2.66-.314-.297-.094-.014.046-.34-.107v.043l-.383-.12-.013.043-.426-.131-.013.043-.426-.134c-.085-.018-.095.016-.095.016l-.798-.25v.043l-.468-.147a5.498 5.498 0 01-1.136-.4l-.766-.24.014-.042-.511-.157.013-.046-.295-.09.013-.043-.298-.093.014-.043-.266-.08.013-.042-.266-.08.013-.043-.212-.067.013-.042-.266-.08.013-.043-.17-.053.013-.043-.212-.066.016-.054-.213-.066.013-.043-.17-.053v-.043l-.17-.053.013-.043-.17-.053v-.043l-.17-.053.013-.043-.327-.149.016-.043-.4-.215.014-.043-.128-.04.014-.043-.128-.04v-.042l-.128-.04v-.043l-.127-.04.013-.04-.128-.04.014-.042-.128-.04.013-.043-.127-.04.013-.043-.128-.04.014-.042-.083-.027.013-.042-.242-.123.014-.043-.085-.026.013-.043-.128-.04.014-.042-.157-.096v-.043l-.128-.04v-.043l-.157-.096.013-.042-.125-.04.014-.043-.157-.096v-.042l-.085-.027.013-.043-.128-.04.014-.045-.23-.162.014-.043-.085-.027.013-.042-.127-.04.013-.043-.226-.165.013-.043-.085-.026.014-.043-.128-.04.013-.043-.157-.096v-.042l-.128-.04.014-.043-.085-.026.013-.043-.125-.04.013-.043-.085-.026.013-.043-.127-.04v-.043l-.128-.04v-.042l-.229-.165v-.043l-.085-.027.014-.042-.157-.096-.016-.099-.226-.165c0-.032-.014-.064-.019-.096l-.229-.165-.016-.099-.156-.096-.016-.098-.115-.083.014-.043-.157-.095-.016-.099-.115-.083v-.042l-.157-.096-.015-.099-.086-.026-.016-.099-.085-.027-.016-.098-.085-.027-.016-.099-.085-.026-.016-.099-.085-.024-.045-.154-.085-.027-.016-.099-.112-.082.013-.043-.087-.029a5.175 5.175 0 00-.046-.152l-.082-.027c-.016-.053-.032-.103-.045-.154l-.085-.027-.016-.098-.085-.027-.016-.099-.115-.082-.074-.21-.085-.027c0-.051-.03-.102-.046-.152l-.082-.027-.074-.21-.115-.083-.016-.099-.085-.026-.104-.267-.085-.026-.103-.267-.085-.026-.104-.267-.083-.026c-.055-.126-.109-.254-.162-.379l-.088-.027-.103-.266-.32-.474a16.526 16.526 0 00-.25-.533l-.085-.027c-.16-.33-.321-.66-.484-.991l-.247-.405.027-.085c-.093-.155-.184-.31-.266-.461-.038-.088-.07-.179-.104-.267l-.072-.07.027-.084a8.893 8.893 0 01-.266-.461l.026-.086-.25-.405.027-.085-.189-.293.027-.083a11.108 11.108 0 00-.189-.293l.027-.088-.16-.234.027-.088-.16-.237.027-.083a4.407 4.407 0 00-.13-.181l.026-.085-.072-.07.013-.042-.071-.07.026-.085-.13-.181.027-.085-.072-.07.013-.042-.072-.07.027-.085-.072-.069v-.139l-.13-.18.026-.086-.1-.125.026-.086-.101-.125.026-.085-.13-.181.027-.083-.102-.125.027-.085c-.035-.043-.066-.086-.101-.125l.027-.086-.072-.07.026-.084-.1-.126.026-.085-.101-.125.027-.085-.102-.126.027-.082-.072-.07.027-.085c-.035-.042-.067-.085-.101-.125l.026-.085-.072-.07.027-.082c-.034-.043-.066-.085-.1-.125l.026-.086-.072-.069v-.141l-.043-.014.027-.085-.101-.122.024-.086-.07-.069v-.141h-.045l.027-.085c-.032-.043-.067-.083-.101-.123l.027-.085-.072-.07v-.14l-.043-.014.027-.085-.072-.07.027-.085-.072-.07.026-.084-.071-.07.026-.082-.072-.07.027-.085-.072-.07.027-.084-.072-.07.024-.082-.07-.07.027-.082-.074-.072v-.139h-.043l.027-.088-.072-.069v-.184l-.072-.069v-.184l-.072-.07v-.183l-.071-.07.026-.084-.058-.11.026-.085-.042-.013.026-.086-.042-.013.024-.085-.043-.014.027-.085h-.043l.027-.082h-.043v-.283h-.042l.04-.128h-.043v-.184h-.043l.04-.128-.042-.013.026-.085-.042-.013.04-.128-.043-.014.04-.127h-.045l.04-.128h-.043l.04-.126c-.098-1.263.117-2.664.061-3.957l.053-.17h-.042l.053-.17h-.042l.053-.171h-.043l.053-.17c0-.454.08-1 .083-1.469l.08-.266-.046-.014.08-.266-.042-.014.093-.298h-.043c.077-.301.157-.605.234-.909a7.89 7.89 0 01.636-2.043l.12-.387c.093-.407.231-.803.412-1.18l.319-1.023c.122-.19.154-.584.293-.8h.042l.2-.64h.042l.186-.602h.043l.16-.511h.042l.146-.469c.266-.418.418-1.066.689-1.468.08-.208.162-.416.242-.626.292-.443.492-1.066.798-1.485l.175-.413c.192-.266.38-.671.572-.943l.067-.213h.042l.053-.17.043.013.053-.17.043.012.053-.17h.042l.054-.17h.042l.15-.328c.417-.555.797-1.194 1.233-1.719l.205-.36.042.014.027-.083h.043l.04-.128h.042l.04-.128a22.914 22.914 0 012.303-2.462l.162-.229.099-.016.026-.085.043.013.026-.085.099-.016c.034-.053.064-.107.098-.157l.096-.02.027-.082h.042l.027-.085h.042l.083-.114.098-.017.027-.087.098-.016.027-.086.098-.016.027-.085h.042l.083-.112.098-.018.027-.083.154-.048.024-.085.098-.016.027-.086.154-.045.027-.085.098-.016c.027-.038.053-.078.083-.115l.151-.045.027-.085.21-.075.026-.085.21-.075.027-.085.322-.133.026-.088.375-.163.027-.085.992-.485.731-.589h.141l.346-.221.085.027.293-.19.085.027.237-.16.082.027.07-.072h.042l.069-.072.085.027.18-.131.086.027.125-.102.085.027.122-.101.086.027.125-.102.085.027.122-.101.085.024.125-.102.083.027.071-.072.085.027.123-.102.085.027.069-.072h.14v-.043l.086.027.07-.075h.14l.013-.042.085.026.07-.071.085.026.069-.072.085.027.07-.072.084.027.07-.072.082.026.069-.072h.184l.069-.072.085.027.069-.072h.183l.07-.072h.183l.07-.072h.183l.069-.072h.183l.072-.072h.266l.07-.072.084.027.112-.059.085.027v-.043l.085.027.07-.075.085.027.109-.059.085.027.013-.043.085.027.07-.072.084.027.11-.059.084.027.014-.043.085.027.013-.043.085.027.014-.045.082.026.112-.058.085.026.069-.072.082.027.112-.059.085.027.014-.043.085.027v-.043l.082.027.013-.043.086.027.013-.045.085.026.013-.042.085.026.014-.042.085.026.013-.042.082.026.014-.042.085.024.013-.043h.184v-.043h.183l.013-.042.085.024.014-.043.128.04.013-.042h.282v-.043l.082.024.013-.043.086.027.013-.043.085.027.013-.043h.184l.013-.045.128.04v-.043h.282l.013-.042.082.026.014-.045.085.027.013-.043.128.04.013-.043h.282l.013-.042.085.026.014-.042.125.037.013-.043h.183l.014-.042.085.026.013-.042.128.04v-.043h.183V16.1l.085.026.014-.042.127.04.014-.043h.183l.013-.043.128.04.013-.042h.184l.013-.043.085.027.014-.043.125.037.013-.042h.183l.014-.043.127.04v-.043h.184l.013-.045.128.04.013-.043h.184l.013-.042.127.04.014-.043h.183l.014-.043.127.04v-.042h.184l.013-.043.128.04.013-.045h.184l.013-.043.127.04.014-.043.085.027.013-.043.125.04.014-.045h.183l.013-.042.128.04.013-.043.085.027.014-.043.127.037.014-.042h.183l.013-.043.128.04v-.043l.085.027.014-.043.265.035.014-.043.085.027.013-.043.266.038.013-.043.083.024.013-.043.41.035.013-.043.128.04.013-.042.128.04.013-.043.128.037.013-.042.308.05.014-.042.31.05.014-.045.17.053.014-.042.212.066.014-.042.17.053.013-.043.266.08v-.045l.213.067.013-.043.298.093.013-.042.34.106.014-.043.426.131v-.043c.25 0 .577.267.779.195.362.086.713.212 1.048.376.234.151.67.183.88.32l.468.146c.08.032.07.07.07.07l.467.146-.013.042.383.12-.013.043.34.104-.013.045.34.104v.045l.298.091-.013.043.298.093c.396.266.928.472 1.31.735l.612.286v.042l.37.163-.013.042.532.267-.014.042.17.054-.013.042.17.054-.013.042.17.053-.013.043.128.04-.014.043.17.053-.013.043.328.149-.014.043.282.135v.043l.128.04-.014.043.17.053c.91.687 1.942 1.31 2.774 2.033l.357.205-.013.043.085.027-.014.042.24.123-.014.042.086.027-.014.043.242.122-.013.043.085.027-.013.042.127.04-.013.043.083.026v.043l.2.11-.014.042.242.122-.014.043.086.027-.014.042.128.04v.043l.082.027-.013.042.128.04-.013.043.156.096-.013.042.2.112v.043l.127.04-.013.043.085.026-.013.043.127.04v.042l.157.096-.013.043.128.04-.014.043.157.095-.013.043.128.04v.043l.082.026-.013.043.127.04-.013.043.157.096-.013.042.085.027v.043l.127.04v.042l.157.096-.013.043.128.04-.014.042.157.096-.013.043.082.026-.013.043.128.04-.013.043.228.165-.013.043.085.026-.013.043.085.027-.013.042.157.096-.014.043.128.04-.013.042.228.165-.013.043.082.027-.013.042.157.096.016.099.157.096-.013.043.087.026v.045l.083.024.058.112.088.027.016.099.085.026.059.112.082.027-.013.042.088.027.016.099.156.096.016.098.085.027-.013.042.085.027.016.099.085.026.016.099.085.027.016.098.088.027.016.098.085.027.016.099.085.026.016.099.085.027.016.098.085.027c.016.05.03.104.046.154l.085.024c.016.053.029.104.045.155l.085.026c.024.072.05.142.075.21l.085.028.074.21.083.027.162.375.085.027.133.322.484.853-.027.085.218.35-.026.082h.042c.016.053.032.104.045.155.014.05.067.085.102.125l-.027.09.13.182-.026.085.1.125-.026.083c.035.042.067.085.101.125l-.026.085.13.181-.027.086.072.069-.026.085c.034.043.069.083.1.126l-.026.085c.025.022.05.045.072.07v.14h.045l-.027.086c.032.042.067.082.102.125l-.027.082.069.07v.14h.043l-.027.089.072.07-.027.084.072.07-.027.085.072.07v.183l.072.07-.027.085.072.069-.026.085.072.07v.183l.071.07-.026.085h.042l-.026.085.071.07v.14l.043.014-.027.085.043.014-.027.085.075.07v.183l.072.07v.183l.071.07v.183l.072.072v.184a.854.854 0 01.07.07v.183l.071.07v.282l.072.07v.183l.072.07v.183l.072.07v.282l.071.07v.183l.072.07v.28l.072.068-.027.088.059.11-.027.085.05.016-.026.085.072.07-.026.087.058.11-.027.085h.046l-.027.085.07.07-.025.085.056.109-.024.085.043.014-.027.085.043.013-.027.085.043.014-.027.085.043.013-.027.083h.043l-.027.085h.042l-.026.085h.045l-.026.086h.042l-.026.082h.042l-.027.086h.043v.183h.045v.184h.043l-.027.086h.043l-.04.127h.042l-.026.086h.045v.184h.037l-.04.127h.043l-.027.086h.043c0 .077-.013.152-.022.226h.043l-.04.128.043.013-.027.086.043.013c0 .088-.024.178-.035.267h.043l-.027.085h.043l-.04.125.042.016-.04.125h.043l-.04.128.045.013-.04.128h.043l-.053.17h.042l-.04.129.043.013-.04.128h.043l-.048.312.042.013-.074.533h.042c-.026.133-.05.266-.077.397l.043.013c-.05.219-.104.435-.154.653 0 .557-.157 1.175-.163 1.727l-.106.34c0 .483-.24 1.067-.25 1.56l-.133.426h.043l-.644 2.98h.043l-.107.34.043.014-.093.298h.042l-.104.341.043.013-.08.267.043.013-.093.299h.042l-.08.266c0 .658-.17 1.407-.17 2.052l-.077.266h.043l-.067.213h.043l-.08.267a6.53 6.53 0 01-.36 1.759l-.212.687-.136.565z" fill="#FFE02F"/><path d="M48.637 81.854c18.937 0 34.288-15.381 34.288-34.355 0-18.973-15.351-34.355-34.288-34.355-18.938 0-34.29 15.382-34.29 34.355 0 18.974 15.352 34.355 34.29 34.355z" fill="#FFE02F"/><g clip-path="url(#aclip1_211_3488)" fill="#0090AF" stroke="#0090AF" stroke-width=".91" stroke-miterlimit="10"><path d="M32.223 35.826a.628.628 0 00.044.967.718.718 0 001-.044 17.952 17.952 0 014.66-3.516.671.671 0 00.289-.929.716.716 0 00-.626-.358.706.706 0 00-.338.082 19.087 19.087 0 00-5.029 3.798zm11.505 30.337a.7.7 0 00-.57-.803 18.19 18.19 0 01-6.755-2.687.692.692 0 00-.394-.12.712.712 0 00-.697.547.668.668 0 00.29.703 19.475 19.475 0 007.294 2.907.717.717 0 00.832-.547zM65.007 49.99a.699.699 0 00.75-.628c.125-2.313-.2-4.63-.957-6.818a.716.716 0 00-.9-.433.675.675 0 00-.484.597.68.68 0 00.033.27 16.55 16.55 0 01.888 6.315.692.692 0 00.67.697zm4.829 5.82l-5.805-1.62a5.728 5.728 0 00-1.582-.22 5.7 5.7 0 00-4.648 2.355.668.668 0 00.181.955.717.717 0 00.989-.176 4.323 4.323 0 012.083-1.534 4.307 4.307 0 012.583-.067l5.805 1.626a.705.705 0 00.876-.465.686.686 0 00-.482-.854z"/><path d="M75.648 51.403c-.882-.251-1.84.226-2.69 1.331a1.088 1.088 0 01-.826.427 4.513 4.513 0 01-1.357-.157l-5.893-1.651a4.09 4.09 0 01-2.136-1.384 4.115 4.115 0 01-.91-2.383.698.698 0 00-.707-.66h-.031a.692.692 0 00-.682.71 5.511 5.511 0 001.222 3.177 5.477 5.477 0 002.85 1.846l5.893 1.645a5.7 5.7 0 001.814.213 2.534 2.534 0 001.908-.98c.531-.696.975-.878 1.15-.828.176.05.388.39.482 1.03a6.931 6.931 0 01-.3 2.806 7.173 7.173 0 01-1.308 2.511c-.431.496-.813.666-.981.628-.17-.037-.395-.364-.514-1.324a5.842 5.842 0 01.313-2.129.68.68 0 00-.438-.873.729.729 0 00-.907.427 7.006 7.006 0 00-.375 2.725c.163 1.42.682 2.254 1.526 2.512.845.257 1.67-.151 2.459-1.055a8.322 8.322 0 001.589-3.033c.35-1.089.468-2.24.344-3.378-.17-1.161-.695-1.933-1.495-2.153zm-52.664 2.11c.034-.103.061-.208.081-.314a.817.817 0 01.726-.628l2.008-.226a.694.694 0 00.542-1.026.707.707 0 00-.705-.362l-1.995.226a2.2 2.2 0 00-1.253.529 2.212 2.212 0 00-.705 1.166l-.056.207c-.3.93-.626 1.194-.763 1.206-.457.044-1.414-1.256-1.633-3.503-.219-2.248.475-3.698.926-3.767.169 0 .57.238.957 1.004a2.51 2.51 0 001.651 1.319 5.866 5.866 0 001.877.131l2.546-.27a18.205 18.205 0 002.608 8.545.733.733 0 00.976.245.676.676 0 00.256-.941 16.728 16.728 0 01-1.707-13.6.68.68 0 00-.482-.847.711.711 0 00-.882.465 17.882 17.882 0 00-.776 4.76l-2.683.281a4.525 4.525 0 01-1.395-.1 1.107 1.107 0 01-.713-.59c-.582-1.15-1.364-1.771-2.208-1.771h-.156c-1.77.157-2.453 2.756-2.209 5.23.244 2.474 1.414 4.903 3.178 4.746.882-.031 1.545-.76 1.99-2.115zM62.95 65.077c-.11.022-.219.049-.326.082a.835.835 0 01-.92-.264l-.862-1.205a.732.732 0 00-.989-.17.67.67 0 00-.181.955l.87 1.205a2.296 2.296 0 002.502.791c.07-.024.144-.044.219-.056.982-.214 1.382-.082 1.463.031.263.358-.425 1.808-2.333 3.14-1.908 1.33-3.553 1.45-3.816 1.092-.1-.138-.069-.597.426-1.3a2.379 2.379 0 00.356-2.04 5.253 5.253 0 00-.813-1.62l-1.332-1.834a19.01 19.01 0 005.923-6.045.68.68 0 00-.256-.942.735.735 0 00-.357-.094.723.723 0 00-.625.338 18.027 18.027 0 01-10.634 7.911.675.675 0 00-.494.842.722.722 0 00.876.477 19.47 19.47 0 004.378-1.758l1.376 1.883c.277.365.489.775.626 1.212a1.065 1.065 0 01-.175.892c-.788 1.123-.932 2.14-.4 2.862 1.025 1.394 3.696.666 5.798-.772 2.102-1.438 3.697-3.635 2.665-5.022-.538-.71-1.527-.905-2.965-.59z"/><path d="M35.82 48.716a.705.705 0 00.826-.553 5.72 5.72 0 00-.485-3.555 5.69 5.69 0 00-2.505-2.56l-7.081-3.83a2.413 2.413 0 00-2.728.358l-.181.151c-.807.628-1.307.722-1.483.628-.419-.226-.544-1.884.726-4.106 1.27-2.223 2.796-3.008 3.215-2.782.213.113.376.628.244 1.495a2.522 2.522 0 00.626 2.078c.445.481.967.884 1.545 1.193l6.005 3.258a6.16 6.16 0 006.962-.81.672.672 0 00.037-.973.725.725 0 00-1-.038 4.702 4.702 0 01-5.305.628l-6.005-3.258a4.443 4.443 0 01-1.182-.91 1.138 1.138 0 01-.275-.967c.212-1.42-.125-2.443-.964-2.888a1.734 1.734 0 00-.832-.201c-1.357 0-3.07 1.35-4.31 3.515-1.52 2.65-1.595 5.218-.175 5.971.807.433 1.833.176 3.053-.753l.263-.22a.963.963 0 011.076-.163l7.08 3.83a4.35 4.35 0 011.91 1.953c.412.84.543 1.79.374 2.711a.688.688 0 00.315.705.68.68 0 00.254.093zm14.781 22.985a2.957 2.957 0 00-.332-.113.901.901 0 01-.681-.816l-.107-8.67a4.406 4.406 0 01.823-2.626 4.38 4.38 0 012.217-1.619.668.668 0 00.477-.604.675.675 0 00-.039-.269.722.722 0 00-.907-.42 5.769 5.769 0 00-2.902 2.122c-.718 1-1.1 2.202-1.089 3.434l.107 8.67a2.286 2.286 0 001.682 2.11l.225.075c.958.365 1.302.729 1.308.924.006.194-.294.54-.964.84a8.099 8.099 0 01-3.09.629 8.104 8.104 0 01-3.127-.49c-.682-.276-.995-.628-.995-.81 0-.182.37-.628 1.214-.948a2.583 2.583 0 001.557-1.557 5.581 5.581 0 00.294-1.884l-.087-7.49a5.827 5.827 0 00-1.222-3.395 5.791 5.791 0 00-2.982-2.017.717.717 0 00-.888.452.689.689 0 00.224.736c.07.057.152.1.239.124a4.41 4.41 0 012.277 1.536c.577.742.903 1.649.932 2.59l.087 7.483c.008.49-.069.98-.225 1.444a1.212 1.212 0 01-.732.71c-1.382.533-2.126 1.33-2.114 2.254.013.922.682 1.563 1.877 2.046a9.618 9.618 0 003.69.59 9.54 9.54 0 003.66-.728c1.163-.527 1.801-1.255 1.782-2.11-.018-.853-.744-1.65-2.189-2.203zM68.035 38.77a1.246 1.246 0 011.007.258c1.163.886 2.252 1.118 3.071.628 1.389-.81 1.214-3.371-.406-5.958a8.97 8.97 0 00-2.503-2.7 3.438 3.438 0 00-1.876-.672c-.322-.003-.64.08-.92.239-.788.458-1.076 1.444-.85 2.925 0 .113.037.227.062.34a.863.863 0 01-.388.973l-7.124 4.043a4.702 4.702 0 01-5.33-.42.723.723 0 00-1 .075.674.674 0 00.075.967 6.162 6.162 0 007.025.559l7.124-4.044a2.232 2.232 0 001.05-2.46c0-.076 0-.152-.043-.227-.15-.986 0-1.45.175-1.557.175-.107.626 0 1.251.383a7.882 7.882 0 012.083 2.279c1.357 2.185 1.301 3.842.888 4.081-.206.12-.75 0-1.464-.54a2.7 2.7 0 00-2.176-.528 6.092 6.092 0 00-1.84.698l-6.073 3.434a5.693 5.693 0 00-2.407 2.652 5.72 5.72 0 00-.352 3.57.722.722 0 001.101.416.69.69 0 00.288-.718 4.353 4.353 0 01.264-2.718 4.333 4.333 0 011.831-2.022l6.074-3.434c.43-.246.897-.422 1.383-.521z"/><path d="M59.464 27.52a2.58 2.58 0 00-2.008.722 5.452 5.452 0 00-1.05 1.5l-.995 2.135a19.825 19.825 0 00-5.36-1.79 19.883 19.883 0 00-3.604-.326h-.732a.687.687 0 00-.682.71.698.698 0 00.739.659 18.79 18.79 0 014.015.295 17.968 17.968 0 019.533 4.948.724.724 0 001.001 0 .678.678 0 000-.974 18.947 18.947 0 00-3.69-2.869l1.05-2.254a4.09 4.09 0 01.782-1.118 1.194 1.194 0 01.889-.3c1.4.1 2.39-.296 2.77-1.093.382-.798.088-1.62-.719-2.512a8.756 8.756 0 00-2.877-1.959 9.011 9.011 0 00-3.41-.822h-.055c-1.195 0-2.04.395-2.377 1.111-.338.716-.05 1.696.95 2.744l.232.226a.772.772 0 01.219.917l-.513 1.123a.668.668 0 00.363.904.717.717 0 00.938-.351l.507-1.111a2.122 2.122 0 00-.545-2.512l-.156-.15c-.682-.716-.763-1.118-.707-1.256.056-.138.457-.314 1.126-.308a7.647 7.647 0 012.84.697c.896.375 1.71.923 2.396 1.614.444.49.569.873.494 1.03-.075.157-.476.433-1.364.37z"/><path d="M47.33 34.627a.7.7 0 00.764-.628.698.698 0 00-.626-.74 4.164 4.164 0 01-2.371-.944 4.19 4.19 0 01-1.382-2.152l-1.144-4.552a.716.716 0 00-.695-.52.77.77 0 00-.169 0 .674.674 0 00-.53.556.68.68 0 00.011.272l1.145 4.552a5.61 5.61 0 001.836 2.881 5.575 5.575 0 003.162 1.275z"/><path d="M42.063 22.334a6.123 6.123 0 01-2.064.803.694.694 0 00-.563.804.722.722 0 00.832.546 7.702 7.702 0 002.64-1.048c1.188-.848 1.676-1.695 1.47-2.512-.294-1.142-1.683-1.625-3.334-1.625-.793.004-1.582.101-2.352.288a8.946 8.946 0 00-3.209 1.4c-.963.722-1.389 1.551-1.188 2.33.2.778 1.12 1.425 2.54 1.582a1.093 1.093 0 01.794.477c.242.372.423.782.538 1.212l1.157 4.614a4.026 4.026 0 01-.202 2.53 4.007 4.007 0 01-1.675 1.903.663.663 0 00-.318.692c.016.09.05.174.1.25a.725.725 0 00.975.22 5.355 5.355 0 002.234-2.542 5.38 5.38 0 00.268-3.38l-1.163-4.614a5.282 5.282 0 00-.713-1.62 2.505 2.505 0 00-1.833-1.105c-.895-.1-1.251-.383-1.326-.546-.075-.163.156-.52.688-.916a7.566 7.566 0 012.67-1.156c2.271-.54 3.86-.088 3.966.34.038.118-.125.495-.931 1.073zM27.308 62.767a.672.672 0 000 .973.724.724 0 001 0l3.753-3.447a5.324 5.324 0 001.195-6.278.726.726 0 00-.625-.39.77.77 0 00-.307.063.683.683 0 00-.338.917 3.974 3.974 0 01-.894 4.702l-3.784 3.46z"/><path d="M39.036 61.781a.724.724 0 00.957-.289.68.68 0 00-.294-.929 5.85 5.85 0 00-2.64-.628 5.768 5.768 0 00-3.91 1.52l-3.915 3.622c-.44.405-.81.88-1.095 1.407a2.33 2.33 0 00-.075 2.084c.357.797.3 1.256.169 1.381-.131.126-.544.132-1.163-.113a7.393 7.393 0 01-2.371-1.657c-1.62-1.626-2.008-3.183-1.683-3.485.1-.094.52-.15 1.445.233a6.162 6.162 0 011.752 1.324.737.737 0 001 .07.672.672 0 00.075-.968 7.428 7.428 0 00-2.264-1.682c-1.351-.565-2.358-.553-2.99.031-1.282 1.187-.15 3.63 1.639 5.425a8.619 8.619 0 002.859 1.978c1.132.445 2.089.389 2.683-.17.594-.559.72-1.645.15-2.913a1.019 1.019 0 010-.904 4.02 4.02 0 01.82-1.049l3.915-3.622a4.371 4.371 0 014.936-.666zm12.454-9.468a.67.67 0 00-.232.942.726.726 0 00.976.226 3.676 3.676 0 001.795-2.461 3.574 3.574 0 00-.744-2.926 4.519 4.519 0 00-2.765-1.626 5.088 5.088 0 00-.87-.075 4.53 4.53 0 00-2.314.628 3.689 3.689 0 00-1.795 2.467c-.407 2.078 1.163 4.119 3.503 4.546a.71.71 0 00.832-.547.688.688 0 00-.316-.704.679.679 0 00-.254-.093c-1.57-.289-2.633-1.613-2.37-2.95a2.335 2.335 0 011.138-1.546 3.118 3.118 0 012.183-.363c.74.125 1.407.518 1.877 1.104a2.256 2.256 0 01.481 1.84 2.332 2.332 0 01-1.126 1.538zM40.318 54.78a3.089 3.089 0 001.827-1.192 2.478 2.478 0 00.412-2.04 2.689 2.689 0 00-2.039-1.922.782.782 0 00-.169 0 .7.7 0 00-.688.521.681.681 0 00.27.722c.076.052.16.089.25.107a1.3 1.3 0 01.994.904 1.147 1.147 0 01-.206.948 1.625 1.625 0 01-.982.628 1.447 1.447 0 01-1.796-.898 1.16 1.16 0 01.15-.879.666.666 0 00-.243-.935.723.723 0 00-.976.238 2.458 2.458 0 00-.313 1.884c.224.713.715 1.31 1.37 1.668a2.868 2.868 0 002.14.247zm5.318-10.767c.81.157 1.65.014 2.364-.401a2.75 2.75 0 001.339-1.846 3.018 3.018 0 00-.593-2.24 2.999 2.999 0 00-2.003-1.15 3.375 3.375 0 00-2.458.464.671.671 0 00-.194.954.726.726 0 00.982.189c.422-.26.926-.355 1.413-.264a1.627 1.627 0 011.107.59 1.64 1.64 0 01.363 1.206 1.402 1.402 0 01-.688.929 1.97 1.97 0 01-1.357.226c-.5-.08-.948-.353-1.251-.76a.725.725 0 00-1.177-.002.674.674 0 000 .768 3.326 3.326 0 002.153 1.337z"/></g></g><defs><clipPath id="aclip0_211_3488"><path fill="#fff" d="M0 0h95.678v95.678H0z"/></clipPath><clipPath id="aclip1_211_3488"><path fill="#fff" transform="translate(17.486 19)" d="M0 0h60v58H0z"/></clipPath></defs></svg><svg fill="none" viewBox="0 0 18 21" id="file" xmlns="http://www.w3.org/2000/svg"><path d="M16.813 4.609L13.33 1.127c-.413-.413-1.239-.76-1.83-.76h-10A1.073 1.073 0 00.429 1.44v17.858c0 .591.48 1.07 1.071 1.07h15a1.07 1.07 0 001.071-1.07V6.439c0-.591-.346-1.417-.759-1.83zm-4.956-2.723c.19.067.38.167.458.245l3.493 3.494c.078.078.179.267.246.457h-4.197V1.886zm4.286 17.053H1.857V1.796h8.572V6.44c0 .592.48 1.072 1.071 1.072h4.643V18.94zM4.714 9.296v.715c0 .2.157.357.357.357h7.858c.2 0 .357-.156.357-.357v-.715c0-.2-.156-.357-.357-.357H5.07c-.2 0-.357.157-.357.357zm8.215 2.5H5.07c-.2 0-.357.157-.357.358v.714c0 .2.157.357.357.357h7.858c.2 0 .357-.156.357-.357v-.714a.352.352 0 00-.357-.357zm0 2.858H5.07c-.2 0-.357.156-.357.357v.714c0 .201.157.357.357.357h7.858c.2 0 .357-.156.357-.357v-.714a.352.352 0 00-.357-.357z" fill="#272733"/></svg><svg fill="none" viewBox="0 0 21 20" id="footer1" xmlns="http://www.w3.org/2000/svg"><g clip-path="url(#cclip0_4_174)"><g clip-path="url(#cclip1_4_174)"><path d="M16.912 13.456c.06.388-.067.552-.195.552s-.314-.158-.521-.47c-.207-.313-.278-.661-.178-.84a.287.287 0 01.17-.126.298.298 0 01.213.022c.341.124.475.63.51.862zm-1.888.85c.41.335.535.733.318 1.013a.687.687 0 01-.55.238.998.998 0 01-.626-.218c-.37-.314-.48-.825-.237-1.114a.534.534 0 01.434-.176c.245.008.479.099.661.257zm-.684 3.23c1.762 0 3.674.585 5.791 2.4.211.18.493-.045.309-.27-2.08-2.54-4.008-3.025-5.922-3.433-2.346-.502-3.554-1.78-4.4-3.182-.166-.279-.242-.23-.257.13a7.655 7.655 0 00.124 1.59H9.7a6.226 6.226 0 01-3.377-.992 5.927 5.927 0 01-2.239-2.639 5.701 5.701 0 01-.345-3.397A5.823 5.823 0 015.4 4.733a6.145 6.145 0 013.112-1.61 6.27 6.27 0 013.512.335 6.04 6.04 0 012.728 2.166 5.744 5.744 0 01.986 3.95 9.38 9.38 0 00-1.93-.035c-.232.02-.198.13-.025.154 2.004.35 3.391 1.55 3.706 3.74a.053.053 0 00.014.03.055.055 0 00.062.014.055.055 0 00.026-.021 8.658 8.658 0 001.24-5.608 8.78 8.78 0 00-2.554-5.176 9.31 9.31 0 00-5.29-2.59A9.46 9.46 0 005.165 1.15a9.001 9.001 0 00-3.94 4.286 8.625 8.625 0 00-.417 5.72 8.884 8.884 0 003.28 4.779A9.399 9.399 0 009.7 17.784c1.343.004 2.68-.25 4.641-.25v.002z" fill="#3E9CDC"/></g></g><defs><clipPath id="cclip0_4_174"><path fill="#fff" transform="translate(.5)" d="M0 0h20v20H0z"/></clipPath><clipPath id="cclip1_4_174"><path fill="#fff" transform="translate(.5)" d="M0 0h20v20H0z"/></clipPath></defs></svg><svg fill="none" viewBox="0 0 21 20" id="footer2" xmlns="http://www.w3.org/2000/svg"><path fill-rule="evenodd" clip-rule="evenodd" d="M3.78 9.93c0-.983.083-1.608 2.138-3.13 1.701-1.259 7.155-5.563 7.155-5.563v7.185h4.147v10.34H5.075a1.294 1.294 0 01-1.295-1.284V9.93z" fill="#3E9CDC"/><path fill-rule="evenodd" clip-rule="evenodd" d="M13.073 8.422v4.163l-7.62 5.148 9.634-3.108V8.422h-2.014z" fill="#000" fill-opacity=".2"/><path fill-rule="evenodd" clip-rule="evenodd" d="M9.59 8.207c.446-.527 1.097-.713 1.454-.415.358.297.286.965-.16 1.492-.445.526-1.096.712-1.453.415-.358-.298-.286-.966.16-1.492z" fill="#231F20"/></svg><svg fill="none" viewBox="0 0 21 20" id="footer3" xmlns="http://www.w3.org/2000/svg"><g clip-path="url(#eclip0_4_184)"><path d="M9.34 0a9.12 9.12 0 013.957.901c.189.085.379.187.567.29l-.826.73L11.801.647l-2.133 1.87-1.256-1.343L4.49 4.66l2.511 2.737-.98.85 2.477 2.738-.98.85 3.543 3.893 2.098-1.904 1.824 2.04c-.362.273-.758.546-1.187.783a9.07 9.07 0 01-4.438 1.156c-4.971 0-9.012-3.995-9.012-8.909C.328 4.013 4.37 0 9.34 0zM7.69 8.349l2.15-1.905 1.926 2.126-2.15 1.904-1.927-2.125zm1.53 3.672l2.133-1.92 1.944 2.124-2.15 1.905-1.927-2.11zM6.16 4.727l2.149-1.904 1.926 2.125-2.15 1.904L6.16 4.727zm3.937-1.02l1.6-1.429 1.445 1.582-1.6 1.445-1.445-1.598zm2.856 6.546l1.6-1.428 1.444 1.597-1.6 1.43-1.444-1.6zm1.41 3.214l1.6-1.429 1.444 1.582-1.6 1.444-1.444-1.597zm.654-7.346l1.066-.952.963 1.054-1.066.952-.963-1.054zM13.64 2.975l1.066-.968.964 1.07-1.067.953-.963-1.055zm2.734 6.292l1.067-.952.98 1.054-1.083.952-.963-1.054zm-4.798-2.364l1.6-1.428 1.444 1.581-1.599 1.429-1.445-1.582z" fill="#3E9CDC"/></g><defs><clipPath id="eclip0_4_184"><path fill="#fff" transform="translate(.5)" d="M0 0h20v20H0z"/></clipPath></defs></svg><svg fill="none" viewBox="0 0 21 20" id="footer4" xmlns="http://www.w3.org/2000/svg"><path d="M16.75 14.85a.275.275 0 01-.267.267H4.16a.275.275 0 01-.268-.268V8.421c.176.2.369.385.578.552a112.81 112.81 0 013.566 2.83c.627.527 1.406 1.171 2.276 1.171h.017c.87 0 1.65-.644 2.277-1.172a114.783 114.783 0 013.566-2.829c.209-.167.402-.352.577-.552v6.428zm0-8.798c0 .711-.686 1.64-1.23 2.067a517.56 517.56 0 00-3.357 2.654c-.443.36-1.247 1.13-1.833 1.13h-.017c-.586 0-1.39-.77-1.833-1.13a518.102 518.102 0 00-3.356-2.654c-.754-.594-1.23-1.423-1.23-2.377 0-.142.125-.268.267-.268h12.322c.318 0 .267.368.267.578zm1.072-.31c0-.737-.603-1.34-1.34-1.34H4.163c-.738 0-1.34.603-1.34 1.34v9.107c0 .737.602 1.34 1.34 1.34h12.32c.737 0 1.34-.603 1.34-1.34V5.742z" fill="#3E9CDC"/></svg><svg fill="none" viewBox="0 0 21 20" id="footer5" xmlns="http://www.w3.org/2000/svg"><path d="M15.18 12.286c0 .65-.123 1.222-.369 1.714s-.577.9-.993 1.222a4.598 4.598 0 01-1.626.826c-.586.164-1.333.246-2.241.246H4.713V3.207h4.623c.96 0 1.687.038 2.18.114.497.07.963.223 1.397.457.469.252.817.59 1.046 1.011.234.422.351.908.351 1.46 0 .638-.16 1.206-.483 1.704a2.794 2.794 0 01-1.319 1.099v.07c.81.17 1.457.519 1.943 1.046.486.522.73 1.228.73 2.118zm-4.21-5.379c0-.21-.055-.427-.167-.65a.961.961 0 00-.5-.483 2.042 2.042 0 00-.774-.15 36.06 36.06 0 00-1.318-.017h-.229v2.768h.413c.563 0 .955-.006 1.178-.017a1.91 1.91 0 00.703-.185c.264-.123.445-.293.545-.51.1-.217.15-.469.15-.756zm.827 5.318c0-.405-.082-.721-.247-.95-.164-.228-.41-.4-.738-.518-.199-.076-.474-.117-.826-.123a43.486 43.486 0 00-1.397-.018h-.607v3.279h.176c.855 0 1.447-.006 1.775-.018.329-.012.662-.09 1.002-.237.3-.13.516-.317.65-.563.141-.252.212-.536.212-.852z" fill="#3E9CDC"/></svg><svg fill="none" viewBox="0 0 55 55" id="order1" xmlns="http://www.w3.org/2000/svg"><path d="M33.929 24.929c0 4.962-4.038 9-9 9s-9-4.038-9-9 4.037-9 9-9c4.962 0 9 4.037 9 9zm10.285 16.714c0-.683-.281-1.346-.743-1.808l-6.89-6.89a14.11 14.11 0 002.49-8.016c0-7.815-6.328-14.143-14.142-14.143-7.815 0-14.143 6.328-14.143 14.143 0 7.814 6.328 14.142 14.143 14.142a14.11 14.11 0 008.015-2.49l6.89 6.87a2.522 2.522 0 001.809.763 2.59 2.59 0 002.571-2.571z" fill="#fff"/></svg><svg fill="none" viewBox="0 0 55 56" id="order2" xmlns="http://www.w3.org/2000/svg"><path d="M37.786 35.964a2.59 2.59 0 01-2.572 2.572 2.59 2.59 0 01-2.571-2.572 2.59 2.59 0 012.571-2.571 2.59 2.59 0 012.572 2.571zM22.357 20.536a2.59 2.59 0 01-2.571 2.571 2.59 2.59 0 01-2.572-2.571 2.59 2.59 0 012.572-2.572 2.59 2.59 0 012.571 2.572zM42.93 35.964a7.716 7.716 0 00-7.715-7.714 7.716 7.716 0 00-7.714 7.714 7.716 7.716 0 007.714 7.715 7.716 7.716 0 007.715-7.715zM41 14.107c0-.703-.583-1.286-1.286-1.286H36.5c-.402 0-.783.201-1.025.523L14.261 41.629c-.16.221-.261.483-.261.764 0 .703.583 1.286 1.286 1.286H18.5c.402 0 .784-.201 1.025-.523l21.214-28.285c.16-.222.261-.483.261-.764zm-13.5 6.429a7.716 7.716 0 00-7.714-7.715 7.716 7.716 0 00-7.715 7.715 7.716 7.716 0 007.715 7.714 7.716 7.716 0 007.714-7.714z" fill="#fff"/></svg><svg fill="none" viewBox="0 0 55 56" id="order3" xmlns="http://www.w3.org/2000/svg"><path d="M23.993 29.372v-1.285c0-.362.282-.643.643-.643H38.78c.361 0 .643.281.643.643v1.285a.635.635 0 01-.643.643H24.636a.635.635 0 01-.643-.643zm.643 3.215H38.78c.361 0 .643.281.643.643v1.285a.635.635 0 01-.643.643H24.636a.635.635 0 01-.643-.643V33.23c0-.362.282-.643.643-.643zm0 5.143H38.78c.361 0 .643.28.643.642v1.286a.635.635 0 01-.643.643H24.636a.635.635 0 01-.643-.643v-1.286c0-.361.282-.642.643-.642z" fill="#fff"/><path fill-rule="evenodd" clip-rule="evenodd" d="M16.279 21.315a7.415 7.415 0 117.173-9.3h12.756c1.064 0 2.55.623 3.294 1.366l6.268 6.268c.743.743 1.366 2.23 1.366 3.295v23.143a1.93 1.93 0 01-1.928 1.928h-27a1.93 1.93 0 01-1.93-1.928V21.315zm2.571-.458a7.421 7.421 0 004.813-6.27h10.616v8.357a1.93 1.93 0 001.928 1.928h8.358v20.572H18.85V20.857zm18.824-5.668c-.14-.14-.482-.321-.824-.442v7.554h7.554c-.12-.341-.301-.683-.442-.824l-6.288-6.288zm-20.395-.29h4v-2h-4v-4h-2v4h-4v2h4v4h2v-4z" fill="#fff"/></svg><svg fill="none" viewBox="0 0 56 56" id="order4" xmlns="http://www.w3.org/2000/svg"><path d="M44.795 39.107a.661.661 0 01-.643.643H14.581a.661.661 0 01-.643-.643V23.68c.422.482.884.924 1.386 1.326 2.873 2.21 5.766 4.46 8.558 6.79 1.507 1.265 3.375 2.812 5.464 2.812h.04c2.09 0 3.958-1.547 5.465-2.812 2.792-2.33 5.685-4.58 8.558-6.79.502-.402.964-.844 1.386-1.326v15.428zm0-21.114c0 1.708-1.647 3.938-2.953 4.962a1287.32 1287.32 0 00-8.056 6.369c-1.065.863-2.993 2.712-4.4 2.712h-.04c-1.406 0-3.334-1.849-4.4-2.712-2.67-2.13-5.363-4.26-8.055-6.369-1.808-1.426-2.953-3.415-2.953-5.705 0-.341.301-.643.643-.643h29.571c.764 0 .643.884.643 1.386zm2.572-.743a3.224 3.224 0 00-3.215-3.214H14.581a3.224 3.224 0 00-3.214 3.214v21.857a3.224 3.224 0 003.214 3.214h29.571a3.224 3.224 0 003.215-3.214V17.25z" fill="#fff"/></svg><svg fill="none" viewBox="0 0 56 56" id="order5" xmlns="http://www.w3.org/2000/svg"><path d="M24.729 32.536v-1.929H27.3v-5.786h-.04c-.321.503-.623.724-1.105 1.145l-1.547-1.607 2.973-2.752h2.29v9h2.572v1.929h-7.714zm10.285-5.143c0-3.656-2.21-8.357-6.428-8.357-4.219 0-6.429 4.7-6.429 8.357 0 3.656 2.21 8.357 6.429 8.357s6.428-4.7 6.428-8.357zM45.3 32.536a5.153 5.153 0 00-5.143 5.143H17.015a5.153 5.153 0 00-5.143-5.143V22.25a5.153 5.153 0 005.143-5.143h23.142A5.153 5.153 0 0045.3 22.25v10.286zm2.572-16.715c0-.703-.583-1.285-1.286-1.285h-36c-.703 0-1.286.582-1.286 1.285v23.143c0 .703.583 1.286 1.286 1.286h36c.703 0 1.286-.583 1.286-1.286V15.821z" fill="#fff"/></svg></svg>